<?xml version="1.0" encoding="utf-8"?>
<!-- Generator: Adobe Illustrator 12.0.0, SVG Export Plug-In . SVG Version: 6.00 Build 51448)  -->
<!DOCTYPE svg PUBLIC "-//W3C//DTD SVG 1.1//EN" "http://www.w3.org/Graphics/SVG/1.1/DTD/svg11.dtd" [
	<!ENTITY ns_svg "http://www.w3.org/2000/svg">
	<!ENTITY ns_xlink "http://www.w3.org/1999/xlink">
]>
<svg  version="1.1" id="Layer_1" xmlns="&ns_svg;" xmlns:xlink="&ns_xlink;" width="800" height="600" viewBox="0 0 800 600"
	 overflow="visible" enable-background="new 0 0 800 600" xml:space="preserve">
<g>
	<g>
		<g>
			<defs>
				<rect id="XMLID_19_" y="40" width="800" height="600"/>
			</defs>
			<clipPath id="XMLID_21_">
				<use xlink:href="#XMLID_19_" />
			</clipPath>
			<g clip-path="url(#XMLID_21_)">
				<g>
					<path fill="#0000D1" stroke="#000099" stroke-width="2" stroke-miterlimit="10" d="M-82.6,653.6C-74.3,642.2-77,617.8-68,599.2
						c1.1-2.2,2.6-4.601,4.4-7.101l0,0c0,0,8.2,20.801,10.1,26c2,5.2,11.3,22.9,11.3,22.9s-8.1-25.2-12.5-36.4
						c-4.4-11.1-5.8-16.699-5.8-16.699C-45.7,569.6-17.6,546.6-6,538.3c14.1-10,25.1-31.2,38.1-40.7c11.6-8.399,45.2-19.6,66.7-41.3
						c0.8,3.5,1.3,6.9,1.4,9.2c0.1,6.5-0.9,28.2-0.9,28.2l13.2-10.9c0,0,0.5-13.1,1.5-23.3c0.5-5.4-0.5-13-1.6-19.1
						c12.9-13.7,28.9-21.301,38.8-26c11.5-5.4,24.6-17.801,24.6-17.801c7.7,22,17.2,55.4-0.7,78.5c-17.5,22.5-8.8,32.9-26.4,53.101
						c-11.2,13-20.3,35.6-30.8,54.3c-9.8,1.2-24.1,2.7-36.4,3c-21.4,0.5-19.9-0.5-40,2.9c-20.1,3.399-41.2,0.8-41.2,0.8l-3.4,4.5
						c0,0,24.6,1.7,40.2-0.601c12-1.8,56.4-2.3,75.9-2.399c-4.5,7.1-9.4,13.2-14.8,17.3c-20.7,15.7-45.1,28.5-54,44.5
						c-8.9,16-21.6,34.2-44.9,40.3c-23.3,6.101-18.2,8.5-33.7,8.5c-15.5,0.101-33.5-5.8-33.5-5.8l-9.2-9.1
						C-77.1,686.4-90.9,664.9-82.6,653.6z"/>
					<path fill="none" stroke="#000099" stroke-width="2" stroke-miterlimit="10" d="M1.9,531.5c0,0-0.4,12.9-0.7,19.3
						c-0.2,6.4,2.8,22,2.8,22"/>
					<path fill="none" stroke="#000099" stroke-width="2" stroke-miterlimit="10" d="M10.5,521.6c0,0,1,16.101-0.6,25.9
						s-1.2,21.3-1.2,21.3"/>
					<path fill="none" stroke="#000099" stroke-width="2" stroke-miterlimit="10" d="M19.1,510.9c0,0-3.4,15.5-1.9,25
						s-1.4,26.8-1.4,26.8"/>
					<path fill="none" stroke="#000099" stroke-width="2" stroke-miterlimit="10" d="M27.5,501.6c0,0,1.9,11.5,1,23.101
						c-0.9,11.6-3.2,30-3.2,30"/>
					<path fill="none" stroke="#000099" stroke-width="2" stroke-miterlimit="10" d="M34.3,546.6c0,0-3.1-15.399-3.4-21.1
						c-0.3-5.7,3.5-29.3,3.5-29.3"/>
					<path fill="none" stroke="#000099" stroke-width="2" stroke-miterlimit="10" d="M42.7,491.5c0,0-0.9,14.7-1.4,24.4
						c-0.5,9.699,0,25.399,0,25.399"/>
					<path fill="none" stroke="#000099" stroke-width="2" stroke-miterlimit="10" d="M49.9,487.9c0,0,1.3,10.8,1.6,21.6
						s-2.9,25.7-2.9,25.7"/>
					<path fill="none" stroke="#000099" stroke-width="2" stroke-miterlimit="10" d="M58.7,483.6c0,0-1.6,11.7-2,23.5
						C56.2,518.9,56.8,528.7,56.8,528.7"/>
					<path fill="none" stroke="#000099" stroke-width="2" stroke-miterlimit="10" d="M65.6,480c0,0-0.2,6.8,0.2,16.9
						c0.4,10.1-2,26.699-2,26.699"/>
					<path fill="none" stroke="#000099" stroke-width="2" stroke-miterlimit="10" d="M76,474c0,0-2.8,14.6-2.3,22.2
						c0.5,7.6,0.6,18.1,0.6,18.1"/>
					<path fill="none" stroke="#000099" stroke-width="2" stroke-miterlimit="10" d="M82.7,469.6c0,0,0,9,0,19
						S80.4,509.2,80.4,509.2"/>
					<path fill="none" stroke="#000099" stroke-width="2" stroke-miterlimit="10" d="M89.3,464.8c0,0-2,16.101-0.7,21.8
						c1.3,5.7,0.3,15.7,0.3,15.7"/>
					<path fill="none" stroke="#000099" stroke-width="2" stroke-miterlimit="10" d="M96.3,458.8c0,0,1.3,10,0.7,18.4
						c-0.6,8.5-2.9,20.7-2.9,20.7"/>
					<path fill="none" stroke="#000099" stroke-width="2" stroke-miterlimit="10" d="M116.4,436.5c0,0,2.5,13.2,1.6,22.8
						c-0.9,9.7-1.8,20.5-1.8,20.5"/>
					<path fill="none" stroke="#000099" stroke-width="2" stroke-miterlimit="10" d="M123.8,430.2c0,0,1.1,15.6,1.3,22.1
						c0.1,6.5,1.3,19,1.3,19"/>
					<path fill="none" stroke="#000099" stroke-width="2" stroke-miterlimit="10" d="M133.1,423.9c0,0-2.1,10.199-1.6,18.699
						s1.8,22.5,1.8,22.5"/>
					<path fill="none" stroke="#000099" stroke-width="2" stroke-miterlimit="10" d="M138.7,420.6c0,0,4,9.4,1.9,18.801
						c-2,9.399-2.1,20.3-2.1,20.3"/>
					<path fill="none" stroke="#000099" stroke-width="2" stroke-miterlimit="10" d="M146.4,416.6c0,0,1.7,7.9,1.8,13.2
						c0.1,5.3-0.1,17.7-0.1,17.7"/>
					<path fill="none" stroke="#000099" stroke-width="2" stroke-miterlimit="10" d="M153.6,413.1c0,0,2.9,21.2,1.3,23.801"/>
					<path fill="none" stroke="#000099" stroke-width="2" stroke-miterlimit="10" d="M159.5,409.6c0,0,2.8,14.801-0.2,19.801"/>
					<path fill="none" stroke="#000099" stroke-width="2" stroke-miterlimit="10" d="M165.7,405.1c0,0,3.2,6.5,0.2,12.101"/>
					<path fill="none" stroke="#000099" stroke-width="2" stroke-miterlimit="10" d="M179.6,407.6c0,0-10.8,8.7-14.3,16.301"/>
					<path fill="none" stroke="#000099" stroke-width="2" stroke-miterlimit="10" d="M181.7,415.4c0,0-9,7.8-13.2,9.199
						c-4.2,1.4-8.6,10.5-8.6,10.5"/>
					<path fill="none" stroke="#000099" stroke-width="2" stroke-miterlimit="10" d="M184.3,428.1c0,0-8.3,4.2-15.1,7.2
						c-6.7,3-14.3,9.101-14.3,9.101"/>
					<path fill="none" stroke="#000099" stroke-width="2" stroke-miterlimit="10" d="M185.4,440.6c0,0-15.3,4.4-22.9,8
						C155,452.2,145.4,459.2,145.4,459.2"/>
					<path fill="none" stroke="#000099" stroke-width="2" stroke-miterlimit="10" d="M185.1,448.4c0,0-19.6,4.399-26.2,7.199
						c-6.6,2.801-19.3,10.801-19.3,10.801"/>
					<path fill="none" stroke="#000099" stroke-width="2" stroke-miterlimit="10" d="M182.9,460c0,0-18.3,0.3-23,2
						c-4.7,1.7-25.8,10.1-25.8,10.1"/>
					<path fill="none" stroke="#000099" stroke-width="2" stroke-miterlimit="10" d="M178.8,469.6c0,0-15.5,2.2-26.4,3.4
						s-25.1,5.8-25.1,5.8"/>
					<path fill="none" stroke="#000099" stroke-width="2" stroke-miterlimit="10" d="M171.4,480.4c0,0-10.8-1.2-27.5,2.699
						c-16.6,3.9-30,8-30,8"/>
					<path fill="none" stroke="#000099" stroke-width="2" stroke-miterlimit="10" d="M166.5,489.1c0,0-16,2.4-33.4,6.2
						s-29.9,5.9-29.9,5.9"/>
					<path fill="none" stroke="#000099" stroke-width="2" stroke-miterlimit="10" d="M164,495.9c0,0-16,4.1-32.2,6.6
						c-16.3,2.4-39.9,8.3-39.9,8.3"/>
					<path fill="none" stroke="#000099" stroke-width="2" stroke-miterlimit="10" d="M160.6,507.3c0,0-20.4-0.7-31.7,3.4
						c-11.3,4-27.6,9-36.4,10.1c-8.8,1.101-21.7,7.601-21.7,7.601"/>
					<path fill="none" stroke="#000099" stroke-width="2" stroke-miterlimit="10" d="M157.1,516.2c0,0-5.8-2.9-28,2.2
						c-22.2,5.1-63.4,14.399-63.4,14.399"/>
					<path fill="none" stroke="#000099" stroke-width="2" stroke-miterlimit="10" d="M151.1,525.4c0,0-12-0.4-24.7,1.5
						c-12.7,1.899-19.5,6.699-33.6,8.8c-14.1,2.1-38.7,6.8-38.7,6.8"/>
					<path fill="none" stroke="#000099" stroke-width="2" stroke-miterlimit="10" d="M143.5,535.2c0,0-21.9,1.2-32.8,3.5
						c-10.9,2.3-28.8,8.6-40.7,11c-11.9,2.399-25.5,0.8-25.5,0.8"/>
					<path fill="none" stroke="#000099" stroke-width="2" stroke-miterlimit="10" d="M138.8,542.9c0,0-5.2,1.3-20.9,3.399
						c-15.7,2.101-21.6,6.4-39.7,8.2c-18.1,1.8-42.5,3.6-42.5,3.6"/>
					<path fill="none" stroke="#000099" stroke-width="2" stroke-miterlimit="10" d="M130.9,557.6c0,0-18.5-2.5-31.5,0.2
						s-35.8,8.4-44.9,8.5c-9.1,0.101-28.3-0.2-28.3-0.2"/>
					<path fill="none" stroke="#000099" stroke-width="2" stroke-miterlimit="10" d="M125.5,568.2c0,0-21.4-0.9-40.3,1.399
						c-19,2.301-25.5,6.4-41.3,8.301C28.1,579.8,14.7,575.8,14.7,575.8"/>
					<path fill="none" stroke="#000099" stroke-width="2" stroke-miterlimit="10" d="M120.3,577.2c0,0-16.7-0.4-30.9,0.399
						c-14.2,0.7-49.9,6.801-61.9,6.801s-23.4,0.8-23.4,0.8"/>
					<path fill="none" stroke="#000099" stroke-width="2" stroke-miterlimit="10" d="M110.3,594.9c0,0-12.4,2-34.1,1.6
						c-21.7-0.4-36.1,1.8-50.4,3.3C11.5,601.3-6.8,599.4-6.8,599.4"/>
					<path fill="none" stroke="#000099" stroke-width="2" stroke-miterlimit="10" d="M-8.7,602.4c0,0,18.5,5.1,37,4.6
						s68.1,2.3,68.1,2.3"/>
					<path fill="none" stroke="#000099" stroke-width="2" stroke-miterlimit="10" d="M78.8,621.7c0,0-16-4.4-31.8-4.8
						c-15.8-0.4-41,1.699-62.2-3.2"/>
					<path fill="none" stroke="#000099" stroke-width="2" stroke-miterlimit="10" d="M65.9,630.8c0,0-10.7-3.6-24.6-4.7
						c-13.9-1.1-28.4,3.101-38.2,1.7c-9.8-1.5-22.7-5.7-22.7-5.7"/>
					<path fill="none" stroke="#000099" stroke-width="2" stroke-miterlimit="10" d="M59.9,635.4c0,0-18.1-2.7-34.3-1.301
						c-16.2,1.4-48.9-4.699-48.9-4.699"/>
					<path fill="none" stroke="#000099" stroke-width="2" stroke-miterlimit="10" d="M52.6,641.9c0,0-22.9-2.801-36.7-0.801
						c-13.8,2-43.2-3.899-43.2-3.899"/>
					<path fill="#1111FF" stroke="#000099" stroke-width="2" stroke-miterlimit="10" d="M175.9,396.5c0,0-14.3,45.3-36.3,69.9
						C117.6,491,21.1,569.3,4.1,585.1c-17,15.801-41.7,78.801-56,94.4c-14.3,15.6-32.3,28.9-32.5,36.4c0,0-10.8,5.3-17.7-4.2
						c0,0,17-20,35.4-34.101C-48.4,663.4-28.4,603.5-4,580.1c24.3-23.3,119.4-98.399,138.9-116.5
						C154.4,445.5,175.9,396.5,175.9,396.5z"/>
				</g>
				<g>
					<path fill="#0000AA" stroke="#000099" stroke-width="2" stroke-miterlimit="10" d="M158.8,329.6
						c7.7,15.7-16.9,50.801-18.2,55.801c-1.3,5-1.1,18.199-1.1,18.199S109.7,380,112,367.1c2.3-12.899,7.1-32.199,3.6-37l0,0
						C130,324.7,158.8,329.6,158.8,329.6z"/>
					<path fill="#0000D1" stroke="#000099" stroke-width="2" stroke-linejoin="round" stroke-miterlimit="10" d="M140,327.7
						c-0.3,8.2-8.6,31.6-10.2,39.8c-1.7,8.2,9.8,36.1,9.8,36.1S126.7,386.4,125.5,368.2c-0.3-5.4,8.6-40.5,8.6-40.5H140z"/>
					<path fill="#1111FF" stroke="#000099" stroke-width="2" stroke-miterlimit="10" d="M-68.8,553.3c-9.3-9.399-29.6-31.5-35-41.1
						c5.6-11.5,11-28.4,14.5-37.101C-77.6,445.8-45.8,424.7-39,411.7s10.4-40.4,22.7-53.3c1.4-1.4,2.8-2.801,4.3-4.2
						c1.6,6.8,3.4,14,4.4,17.1c2.4,6.8,23.7,24.9,23.7,24.9S0.9,380.6-2.5,372.5c-1.8-4.2-3.4-14.2-4.6-23
						c11.1-9.8,19.6-21.5,27-33.2c9.4-15,28.7-17.9,44.5-22.9c15.7-5,46-1.5,64.5,8.1c18.5,9.6,25.6,16.9,29.9,28.1
						c0,0-41.9-7.1-49.9,5.4c-8,12.4-10.6,40.5-31.7,60.9C61.4,411.2,59,439,56.6,460.5c-7.7,1.7-17.9,3.8-22.8,4.4
						c-8.3,1-34.7-2.801-34.7-2.801s21.6,7.4,29.5,7.7c4.8,0.2,17.8-1.2,27.1-2.2c-0.6,4.301-1.2,8.2-2,11.5
						c-1.6,6.4-3.2,13.101-5.4,19.9c-7.3,0.3-18.4,0.5-26.8-0.7c-13.7-1.8-34.9-8.1-34.9-8.1l-1.4,3c0,0,32.2,7.5,39.3,9.3
						c4.4,1.1,14.6,1.8,21.8,2.2C41.7,517.2,34.8,529.1,22,537.5C0.6,551.6-2,583-14.9,590.2c-10.6,6-39.7,10.3-70.6-17.3
						c-16.5-14.7-27.1-38.9-21-54.601C-95.9,530.6-68.8,553.3-68.8,553.3z"/>
					<path fill="#1111FF" stroke="#000099" stroke-width="2" stroke-miterlimit="10" d="M-84.8,601.7c0,0,37.5-45.2,59.6-86.9
						C-3.1,473.1,42.3,353,65.8,330c17.9-17.5,53.3-23.8,65.1-25.4c3.6-0.5-2-3-2-3s-37-4.7-71.3,28.4c-34.3,33.1-84,165.6-97.5,186
						c-13.5,20.5-52,65.7-61.3,73.5C-101.2,589.4-104.9,603.7-84.8,601.7z"/>
					<path fill="none" stroke="#000099" stroke-width="2" stroke-miterlimit="10" d="M2,425.4c0,0-7.9-11.5-14.1-17.801
						c-6.2-6.3-15.7-28.8-15.7-28.8"/>
					<path fill="none" stroke="#000099" stroke-width="2" stroke-miterlimit="10" d="M5.7,417.5c0,0-7.9-14.2-14.4-22.9
						C-15.2,385.9-24,370-24,370"/>
					<path fill="none" stroke="#000099" stroke-width="2" stroke-miterlimit="10" d="M-18.7,360c0,0,5.6,11,9.3,18.9
						C-5.7,386.8,10.2,408.1,10.2,408.1"/>
					<path fill="none" stroke="#000099" stroke-width="2" stroke-miterlimit="10" d="M19.8,388.7c0,0-4.7-12.5-11.4-19
						c-6.7-6.5-10.6-24.8-10.6-24.8"/>
					<path fill="none" stroke="#000099" stroke-width="2" stroke-miterlimit="10" d="M25.1,378.6c0,0-3.6-11.6-8.3-19.199
						c-4.7-7.601-13.4-20.5-13.4-20.5"/>
					<path fill="none" stroke="#000099" stroke-width="2" stroke-miterlimit="10" d="M29.8,369.9c0,0-6.3-11.101-10.7-19.5
						c-4.4-8.4-7.7-21.5-7.7-21.5"/>
					<path fill="none" stroke="#000099" stroke-width="2" stroke-miterlimit="10" d="M34.6,361.6c0,0-2.7-8-8.1-16.699
						C21.1,336.2,18,319.3,18,319.3"/>
					<path fill="none" stroke="#000099" stroke-width="2" stroke-miterlimit="10" d="M41,351.1c0,0-4.6-14.399-8.4-22.6
						c-3.8-8.2-7.8-18.3-7.8-18.3"/>
					<path fill="none" stroke="#000099" stroke-width="2" stroke-miterlimit="10" d="M46.4,343.3c0,0-1-12.2-3.1-21.2
						c-2.1-9-5.8-20-5.8-20"/>
					<path fill="none" stroke="#000099" stroke-width="2" stroke-miterlimit="10" d="M48.3,298.1c0,0,0.4,15.3,1.2,19.9
						s4.1,16,4.1,16"/>
					<path fill="none" stroke="#000099" stroke-width="2" stroke-miterlimit="10" d="M61.1,294.4c0,0-5.3,12.8-4.8,18.6
						s1.2,16.9,1.2,16.9"/>
					<path fill="none" stroke="#000099" stroke-width="2" stroke-miterlimit="10" d="M64,324.1c0,0,2.6-12.399,3.3-18.199
						c0.7-5.7,3.6-14.101,3.6-14.101"/>
					<path fill="none" stroke="#000099" stroke-width="2" stroke-miterlimit="10" d="M78.4,291.2c0,0-3,6.3-4.2,11.899
						C73,308.7,70.6,319,70.6,319"/>
					<path fill="none" stroke="#000099" stroke-width="2" stroke-miterlimit="10" d="M86.3,291.2c0,0-1.2,14.8-7.1,22.399"/>
					<path fill="none" stroke="#000099" stroke-width="2" stroke-miterlimit="10" d="M87.4,309.5c0,0,2.2-7,2.6-10.2
						c0.5-3.2-0.3-7.8-0.3-7.8"/>
					<path fill="none" stroke="#000099" stroke-width="2" stroke-miterlimit="10" d="M96.4,306c0,0,3.7-5.8,3.6-13.9"/>
					<path fill="none" stroke="#000099" stroke-width="2" stroke-miterlimit="10" d="M104.2,303.7c0,0,4.6-4.7-0.8-10.5"/>
					<path fill="none" stroke="#000099" stroke-width="2" stroke-miterlimit="10" d="M111.3,302.3c0,0,0.9-2.9-2.5-8"/>
					<path fill="none" stroke="#000099" stroke-width="2" stroke-miterlimit="10" d="M-0.3,568c0,0-11-4.7-19.5-6.9
						c-8.5-2.199-28.4-8.6-28.4-8.6"/>
					<path fill="none" stroke="#000099" stroke-width="2" stroke-miterlimit="10" d="M-44.9,547.6c0,0,11.9,2.101,20.9,3.4
						s28.4,7.3,28.4,7.3"/>
					<path fill="none" stroke="#000099" stroke-width="2" stroke-miterlimit="10" d="M7.8,552.6c0,0-17-4.8-24.1-6.199
						C-23.4,545-40,540.1-40,540.1"/>
					<path fill="none" stroke="#000099" stroke-width="2" stroke-miterlimit="10" d="M-36.1,533.8c0,0,12.6,3.3,18.5,4.8
						c5.8,1.4,31,6.601,31,6.601"/>
					<path fill="none" stroke="#000099" stroke-width="2" stroke-miterlimit="10" d="M18.6,540c0,0-16.8-4.1-26.6-6.9
						c-9.9-2.699-24.8-4.899-24.8-4.899"/>
					<path fill="none" stroke="#000099" stroke-width="2" stroke-miterlimit="10" d="M-28.7,521.1c0,0,16.8,3,23.9,4
						c7.1,1,32.3,8.301,32.3,8.301"/>
					<path fill="none" stroke="#000099" stroke-width="2" stroke-miterlimit="10" d="M34.4,526.4c0,0-16.3-3.301-26.5-4.801
						c-10.2-1.5-33.1-6.899-33.1-6.899"/>
					<path fill="none" stroke="#000099" stroke-width="2" stroke-miterlimit="10" d="M-22.3,509.2c0,0,10.6,1.399,20.8,3.5
						c10.2,2.1,40,8.3,40,8.3"/>
					<path fill="none" stroke="#000099" stroke-width="2" stroke-miterlimit="10" d="M41.5,515.8c0,0-17.7-4.399-29.3-6.6
						C0.6,507-18,500.4-18,500.4"/>
					<path fill="none" stroke="#000099" stroke-width="2" stroke-miterlimit="10" d="M50.1,492.8c0,0-15.2,0.2-23.2-0.5
						s-38.3-6.6-38.3-6.6"/>
					<path fill="none" stroke="#000099" stroke-width="2" stroke-miterlimit="10" d="M-9.1,480.8c0,0,20.1,4.601,28.1,5.7
						s32.2,2.3,32.2,2.3"/>
					<path fill="none" stroke="#000099" stroke-width="2" stroke-miterlimit="10" d="M52.7,483.1c0,0-15-3.1-24.3-3.1
						c-9.3,0-36-2.6-36-2.6"/>
					<path fill="none" stroke="#000099" stroke-width="2" stroke-miterlimit="10" d="M-5.6,473c0,0,29,2.7,34.7,2.4
						c5.8-0.301,25.8-1,25.8-1"/>
					<path fill="none" stroke="#000099" stroke-width="2" stroke-miterlimit="10" d="M57.4,452.9c0,0-18.3,5.699-27.5,5
						c-9.2-0.7-28.2-1.7-28.2-1.7"/>
					<path fill="none" stroke="#000099" stroke-width="2" stroke-miterlimit="10" d="M58,448.4c0,0-10.8,1.899-21.4,1
						C26,448.5,4.5,450.1,4.5,450.1"/>
					<path fill="none" stroke="#000099" stroke-width="2" stroke-miterlimit="10" d="M58.9,441.6c0,0-18,1.4-26,0.4
						s-24.1-1.6-24.1-1.6"/>
					<path fill="none" stroke="#000099" stroke-width="2" stroke-miterlimit="10" d="M60.1,434c0,0-18.5-1.3-26.3-0.4
						c-7.8,0.9-22.2,0.2-22.2,0.2"/>
					<path fill="none" stroke="#000099" stroke-width="2" stroke-miterlimit="10" d="M61.5,427.2c0,0-9.8-3.8-20.5-5.3
						S16.4,422.8,16.4,422.8"/>
					<path fill="none" stroke="#000099" stroke-width="2" stroke-miterlimit="10" d="M19.6,415.8c0,0,22.3,1.101,29,2.2
						c6.7,1.1,15.3,0.5,15.3,0.5"/>
					<path fill="none" stroke="#000099" stroke-width="2" stroke-miterlimit="10" d="M67,410.8c0,0-14.7-2.2-23.1-2.1
						c-8.4,0.1-21.9,1.6-21.9,1.6"/>
					<path fill="none" stroke="#000099" stroke-width="2" stroke-miterlimit="10" d="M26.6,400.4c0,0,14.5-0.4,22.1,1
						c7.6,1.399,20.7,5.3,20.7,5.3"/>
					<path fill="none" stroke="#000099" stroke-width="2" stroke-miterlimit="10" d="M73.1,400.5c0,0-14.7-1.9-23.3-4.1
						C41.2,394.2,29,395.1,29,395.1"/>
					<path fill="none" stroke="#000099" stroke-width="2" stroke-miterlimit="10" d="M31.9,388.8c0,0,21.5-1.899,28.6-1.1
						s21.1,3.5,21.1,3.5"/>
					<path fill="none" stroke="#000099" stroke-width="2" stroke-miterlimit="10" d="M89,381.1c0,0-10.6-2.899-21.8-1.6
						c-11.2,1.3-30.4-1.1-30.4-1.1"/>
					<path fill="none" stroke="#000099" stroke-width="2" stroke-miterlimit="10" d="M40.5,371c0,0,17.3,2,24,2.4
						c6.7,0.399,27.9,1.399,27.9,1.399"/>
					<path fill="none" stroke="#000099" stroke-width="2" stroke-miterlimit="10" d="M94.8,369.9c0,0-11.5-2.7-24.1-4.7
						c-12.5-1.9-27.3-0.101-27.3-0.101"/>
					<path fill="none" stroke="#000099" stroke-width="2" stroke-miterlimit="10" d="M46.2,360c0,0,10.6-3.2,20.7-3.4
						c10.1-0.199,31.4,4.7,31.4,4.7"/>
					<path fill="none" stroke="#000099" stroke-width="2" stroke-miterlimit="10" d="M100.5,355.5c0,0-17.7-6.2-27.7-7.1
						c-10-0.9-20.7,1-20.7,1"/>
					<path fill="none" stroke="#000099" stroke-width="2" stroke-miterlimit="10" d="M56.2,342.6c0,0,17.9,1.301,23.9,1.9
						c6.1,0.5,22.1,4.1,22.1,4.1"/>
					<path fill="none" stroke="#000099" stroke-width="2" stroke-miterlimit="10" d="M104.7,343.8c0,0-8.9-5.399-17.4-6.7
						c-8.5-1.3-24-3.899-24-3.899"/>
					<path fill="none" stroke="#000099" stroke-width="2" stroke-miterlimit="10" d="M68.5,327.6c0,0,11.2,1.301,19.3,2.7
						c8.1,1.4,19.6,7.3,19.6,7.3"/>
					<path fill="none" stroke="#000099" stroke-width="2" stroke-miterlimit="10" d="M112.2,331.8c0,0-8-5.7-14.7-7.399
						c-6.6-1.7-17.7-4.601-17.7-4.601"/>
					<path fill="none" stroke="#000099" stroke-width="2" stroke-miterlimit="10" d="M85.6,317c0,0,10,2.4,16.2,4.2
						c6.3,1.8,20.6,7.2,20.6,7.2"/>
					<path fill="none" stroke="#000099" stroke-width="2" stroke-miterlimit="10" d="M127.8,327.8c0,0-17.7-12.399-32.2-14.8"/>
					<path fill="none" stroke="#000099" stroke-width="2" stroke-miterlimit="10" d="M134.1,327.6c0,0-15.8-16-26.7-18.8"/>
					<path fill="none" stroke="#000099" stroke-width="2" stroke-miterlimit="10" d="M144.9,328c0,0-15.6-16.4-31.5-20.1"/>
					<path fill="none" stroke="#000099" stroke-width="2" stroke-miterlimit="10" d="M151.6,328.6c0,0-5.2-9.899-10.7-14.699
						c-5.5-4.801-16.8-8.301-16.8-8.301"/>
					<path fill="none" stroke="#000099" stroke-width="2" stroke-miterlimit="10" d="M139.6,330.9c0,0,14.8,8.5,20.3,11.199"/>
					<path fill="none" stroke="#000099" stroke-width="2" stroke-miterlimit="10" d="M158.4,348.4c0,0-15.9-2-20.5-9.9"/>
					<path fill="none" stroke="#000099" stroke-width="2" stroke-miterlimit="10" d="M154.7,358.1c0,0-6.9-3.5-10.1-6.399
						c-3.1-2.8-8.1-7.8-8.1-7.8"/>
					<path fill="none" stroke="#000099" stroke-width="2" stroke-miterlimit="10" d="M150.5,366.9c0,0-12.2-7.2-16.2-15.4"/>
					<path fill="none" stroke="#000099" stroke-width="2" stroke-miterlimit="10" d="M146.8,373.7c0,0-1.4-4.7-6-8.601
						c-4.6-3.899-8.3-8.5-8.3-8.5"/>
					<path fill="none" stroke="#000099" stroke-width="2" stroke-miterlimit="10" d="M130.8,362.9c0,0,7,14.399,10.7,20.3"/>
					<path fill="none" stroke="#000099" stroke-width="2" stroke-miterlimit="10" d="M127.1,377.5c0,0-1,8.8-3,11.7"/>
					<path fill="none" stroke="#000099" stroke-width="2" stroke-miterlimit="10" d="M125.5,368.1c0,0-2.1,8.801-3.4,10.101
						c-1.3,1.3-3.3,5.1-3.3,5.1"/>
					<path fill="none" stroke="#000099" stroke-width="2" stroke-miterlimit="10" d="M126.8,357.8c0,0-5.7,7.9-7.2,10.9
						s-5.4,7.399-5.4,7.399"/>
					<path fill="none" stroke="#000099" stroke-width="2" stroke-miterlimit="10" d="M128.3,349.9c0,0-7.4,9.699-15.7,13.8"/>
					<line fill="none" stroke="#000099" stroke-width="2" stroke-miterlimit="10" x1="130" y1="343.4" x2="114.9" y2="351.8"/>
					<path fill="none" stroke="#000099" stroke-width="2" stroke-miterlimit="10" d="M131.7,336.8c0,0-11.1,2.7-15.7,8.7"/>
					<line fill="none" stroke="#000099" stroke-width="2" stroke-miterlimit="10" x1="133.4" y1="330.2" x2="116.8" y2="335.5"/>
				</g>
				<g>
					<path fill="#1111FF" stroke="#000099" stroke-width="2" stroke-miterlimit="10" d="M252.7,526.6c-9.3-1-18.2,0.9-27,3.301
						C214.3,548,205.2,567.8,205.2,567.8c1-11.3,4.8-24.1,8.6-34.6c-6.2,1.6-12.4,2.899-18.8,3c-19.8,0.3-46.8-2.2-66.6,18.899
						C108.6,576.2,77.2,574.2,53.1,590.4c-4.7,3.199-9.4,7-14.1,11.3c-0.4,31.5-5.6,69.1-5.6,69.1s1.3-31-0.8-45.3
						c-0.6-4-1.5-9.4-2.6-15.1c-4,4.1-7.9,8.3-11.8,12.5l6.5,54.5L11.9,629.8C3.1,639.4-4.8,648-11.3,652.6
						c-15.9,11.2-80.4,35.101-61.2,84.2c0,0.101,0.1,0.2,0.1,0.2c-0.1-0.1-0.1-0.2-0.1-0.2l6,16.9c0,0,24,34.6,49.3,29.899
						c17-3.1,30.5-12.899,43.1-23.699C16.1,755.6-29.3,735.6-36.3,731.1c0,0,50.2,18.101,68,23.801c6.9-5.7,13.9-10.5,21.3-12.2
						c22.9-5.3,75-21.7,94.1-35.8c19.1-14.101,34-64.101,55.4-76.2c21.4-12.101,34.9-21.2,49.5-41.3
						c14.6-20.101,37.7-17.101,59.1-39C311.4,550.1,272.6,528.8,252.7,526.6z"/>
					<path fill="#1111FF" stroke="#000099" stroke-width="2" stroke-miterlimit="10" d="M-101.6,758.6
						c-9.3,8.301,12,14.101,12,14.101s51.2-44.8,91.3-65C41.9,687.6,182.8,550.4,311.4,550.1c0,0-64.3-5-141.4,32.4
						C92.8,620,17.9,685.3,1,694S-72.6,732.9-101.6,758.6z"/>
					<path fill="none" stroke="#000099" stroke-width="2" stroke-miterlimit="10" d="M101.7,636.1c0,0,23.5,0.301,43.6,5.7
						c20.1,5.4,39.1,8.601,39.1,8.601"/>
					<path fill="none" stroke="#000099" stroke-width="2" stroke-miterlimit="10" d="M110.3,630.2c0,0,27.6,0.6,43,4.1
						c15.4,3.5,42.8,1.3,42.8,1.3"/>
					<path fill="none" stroke="#000099" stroke-width="2" stroke-miterlimit="10" d="M119.1,624.3c0,0,26.4-1.2,41.8,0.601
						c15.4,1.8,55-2.2,55-2.2"/>
					<path fill="none" stroke="#000099" stroke-width="2" stroke-miterlimit="10" d="M131.7,616.1c0,0,27.3,0.5,43.1,1.9
						c15.8,1.5,44.8-7.9,57.4-6.9"/>
					<path fill="none" stroke="#000099" stroke-width="2" stroke-miterlimit="10" d="M149.7,605c0,0,15.6-0.4,34.8,2
						s52.3-0.1,52.3-0.1"/>
					<path fill="none" stroke="#000099" stroke-width="2" stroke-miterlimit="10" d="M163.2,597.2c0,0,15.8,0,35.5,0.6
						c19.7,0.601,42.6,4.7,42.6,4.7"/>
					<path fill="none" stroke="#000099" stroke-width="2" stroke-miterlimit="10" d="M182.1,587c0,0,20.6-4,34.7-3.2
						c14.1,0.8,35.4,5.3,35.4,5.3"/>
					<path fill="none" stroke="#000099" stroke-width="2" stroke-miterlimit="10" d="M172.3,592.2c0,0,6.3,2,28.1,0
						c21.8-2,48,2,48,2"/>
					<path fill="none" stroke="#000099" stroke-width="2" stroke-miterlimit="10" d="M205.4,575.9c0,0,14.5-2.801,29.9-1.4
						c15.4,1.4,26.2,5.4,26.2,5.4"/>
					<path fill="none" stroke="#000099" stroke-width="2" stroke-miterlimit="10" d="M225.4,567.7c0,0,15.5-0.7,26.2,2.6
						c10.7,3.2,28.4-0.3,28.4-0.3"/>
					<path fill="none" stroke="#000099" stroke-width="2" stroke-miterlimit="10" d="M244,561.3c0,0,15.5-1.899,25-0.2
						c9.5,1.7,24.4,2.5,24.4,2.5"/>
					<line fill="none" stroke="#000099" stroke-width="2" stroke-miterlimit="10" x1="267.7" y1="555" x2="303.6" y2="557"/>
					<path fill="none" stroke="#000099" stroke-width="2" stroke-miterlimit="10" d="M9.5,632.5c0,0-1.2,34,5.3,52.2"/>
					<path fill="none" stroke="#000099" stroke-width="2" stroke-miterlimit="10" d="M5.1,637.2c0,0,1.8,39.5-4.2,56.8"/>
					<path fill="none" stroke="#000099" stroke-width="2" stroke-miterlimit="10" d="M26.1,614.5c0,0,3.4,19.6,3.8,32.6
						s0.7,25.9,0.7,25.9"/>
					<path fill="none" stroke="#000099" stroke-width="2" stroke-miterlimit="10" d="M46.9,594.9c0,0-2.7,21.3-2.8,35.1
						s-0.8,33.4-0.8,33.4"/>
					<path fill="none" stroke="#000099" stroke-width="2" stroke-miterlimit="10" d="M208.5,534.4c0,0-2.9,7.5-6.6,16.5
						c-3.7,8.899-5.3,20.1-5.3,20.1"/>
					<path fill="none" stroke="#000099" stroke-width="2" stroke-miterlimit="10" d="M198.7,535.9c0,0-3.2,15.199-4.7,21.5
						c-1.5,6.199-3.5,16-3.5,16"/>
					<path fill="none" stroke="#000099" stroke-width="2" stroke-miterlimit="10" d="M192,536.2c0,0-6.7,18.7-7.6,25.7
						s-2.1,14.899-2.1,14.899"/>
					<path fill="none" stroke="#000099" stroke-width="2" stroke-miterlimit="10" d="M183.8,536.2c0,0-8.6,24.5-9,42.8"/>
					<path fill="none" stroke="#000099" stroke-width="2" stroke-miterlimit="10" d="M175.4,536.4c0,0-3.2,16.8-4.1,24.399
						c-0.9,7.601-4.5,23.2-4.5,23.2"/>
					<path fill="none" stroke="#000099" stroke-width="2" stroke-miterlimit="10" d="M164.7,537.4c0,0-1.7,11.8-2.8,22.199
						c-1.1,10.4-8.4,31.301-8.4,31.301"/>
					<path fill="none" stroke="#000099" stroke-width="2" stroke-miterlimit="10" d="M158.3,538.5c0,0-5.8,16.9-8.9,33.3
						c-3.1,16.4-3.1,23-3.1,23"/>
					<path fill="none" stroke="#000099" stroke-width="2" stroke-miterlimit="10" d="M145.6,542.7c0,0-0.6,14.7-4.2,25.899
						c-3.6,11.2-8.8,34.101-8.8,34.101"/>
					<path fill="none" stroke="#000099" stroke-width="2" stroke-miterlimit="10" d="M133.3,550.4c0,0,0.1,17.6-1.1,25.699
						c-1.1,8.101-4.4,29.4-4.4,29.4"/>
					<path fill="none" stroke="#000099" stroke-width="2" stroke-miterlimit="10" d="M126.8,556.7c0,0-4.2,7.8-6.2,23.399
						c-2,15.601-2.6,31.5-2.6,31.5"/>
					<path fill="none" stroke="#000099" stroke-width="2" stroke-miterlimit="10" d="M120.1,562.2c0,0-2.8,2.3-6.1,15.3
						c-3.4,13-2.4,38.2-2.4,38.2"/>
					<path fill="none" stroke="#000099" stroke-width="2" stroke-miterlimit="10" d="M110.8,567.6c0,0-3.1,18.601-3.7,24.9
						s-4.8,29.1-4.8,29.1"/>
					<path fill="none" stroke="#000099" stroke-width="2" stroke-miterlimit="10" d="M101.5,571.5c0,0-1.1,19.3-2.2,31.7
						c-1.2,12.399-3.4,22-3.4,22"/>
					<path fill="none" stroke="#000099" stroke-width="2" stroke-miterlimit="10" d="M94.1,574c0,0,1.4,12.6-0.4,24.4
						C91.9,610.3,88.2,630.8,88.2,630.8"/>
					<path fill="none" stroke="#000099" stroke-width="2" stroke-miterlimit="10" d="M85.3,576.7c0,0-4.8,23.7-6.6,35.5
						c-1.7,11.8-0.2,25.6-0.2,25.6"/>
					<path fill="none" stroke="#000099" stroke-width="2" stroke-miterlimit="10" d="M75.5,579.8c0,0-2,14.101-4.4,27.4
						c-1.8,10.1,2.9,20.1-2.2,37.399"/>
					<path fill="none" stroke="#000099" stroke-width="2" stroke-miterlimit="10" d="M66.7,583.1c0,0,0.6,29.801-0.6,36.5
						c-1.2,6.7-3.4,29.5-3.4,29.5"/>
					<path fill="none" stroke="#000099" stroke-width="2" stroke-miterlimit="10" d="M54,589.8c0,0-5.3,25.7-6.2,35.601
						c-0.9,10,1.7,33.5,1.7,33.5"/>
					<path fill="none" stroke="#000099" stroke-width="2" stroke-miterlimit="10" d="M60.2,586.2c0,0-0.8,18.7-2.2,32.5
						c-1.4,13.7-1.9,35.3-1.9,35.3"/>
					<path fill="none" stroke="#000099" stroke-width="2" stroke-miterlimit="10" d="M229.2,529c0,0-8.1,16.2-9.1,22.8
						c-1,6.601-1.6,11.7-1.6,11.7"/>
					<path fill="none" stroke="#000099" stroke-width="2" stroke-miterlimit="10" d="M239.6,526.9c0,0-11.8,16.8-16.9,35.3"/>
					<path fill="none" stroke="#000099" stroke-width="2" stroke-miterlimit="10" d="M251,525.9c0,0-11.9,13.1-16.8,19.8
						c-4.9,6.7-7.2,15.3-7.2,15.3"/>
					<path fill="none" stroke="#000099" stroke-width="2" stroke-miterlimit="10" d="M232.8,559.4c0,0,11.7-16.801,18.2-21.7
						c6.6-4.9,14-8.8,14-8.8"/>
					<path fill="none" stroke="#000099" stroke-width="2" stroke-miterlimit="10" d="M273.2,532.3c0,0-24.2,13.4-29.6,24.601"/>
					<path fill="none" stroke="#000099" stroke-width="2" stroke-miterlimit="10" d="M252.4,555.1c0,0,19.8-9.6,30.5-18.8"/>
					<line fill="none" stroke="#000099" stroke-width="2" stroke-miterlimit="10" x1="289.4" y1="538.8" x2="272.9" y2="551.8"/>
					<path fill="none" stroke="#000099" stroke-width="2" stroke-miterlimit="10" d="M281,551c0,0,4.6-6.6,17.4-7.6"/>
				</g>
				<g>
					<path fill="#0000D1" stroke="#000099" stroke-width="2" stroke-miterlimit="10" d="M-2.5,99.3c-7.1,6.1-11.7,13.9-16,22
						C-13,142-4.7,162.1-4.7,162.1c-7.6-8.4-14.4-19.9-19.5-29.9c-3,5.6-6.3,11-10.6,15.8c-13.3,14.7-33.5,32.7-31.6,61.6
						s-20.9,50.5-25.5,79.2c-0.9,5.6-1.3,11.7-1.3,18c22.8,21.8,46.8,51.2,46.8,51.2s-21.8-22.1-33.7-30.3
						c-3.3-2.3-7.9-5.3-12.8-8.4c0.3,5.7,0.7,11.5,1.1,17.101l44.3,32.399L-91,345.7c1.1,13,1.9,24.6,0.8,32.5
						c-2.6,19.3-29.1,82.7,19.8,102.2c0.1,0,0.2,0.1,0.2,0.1c-0.1-0.1-0.2-0.1-0.2-0.1l16.5,7.1c0,0,41.7,6,55.5-15.7
						c9.3-14.6,11.4-31.1,12-47.7C3.7,428.3-41.8,447.9-49.9,450c0,0,47.4-24.4,63.8-33.5c0.6-9,1.8-17.3,5.6-23.9
						c11.7-20.399,35.2-69.699,38-93.3c2.7-23.6-23.7-68.5-18-92.5c5.7-23.9,8.3-40,3.5-64.3S56.1,103,54.7,72.4
						C54.7,72.4,12.6,86.2-2.5,99.3z"/>
					<path fill="#1111FF" stroke="#000099" stroke-width="2" stroke-miterlimit="10" d="M-74.4,516.6c-0.3,12.5,18.5,0.9,18.5,0.9
						s2.1-68,14.8-111.1c12.7-43.101,8.4-239.8,95.8-334c0,0-47.5,43.6-72.7,125.6s-28.5,181.3-33.6,199.6
						C-56.7,415.9-73.4,477.9-74.4,516.6z"/>
					<path fill="none" stroke="#000099" stroke-width="2" stroke-miterlimit="10" d="M-53.4,480.3c0,0,39.8-4.899,60.1-18.6"/>
					<path fill="none" stroke="#000099" stroke-width="2" stroke-miterlimit="10" d="M-52.4,469.8c0,0,40.2-10.1,64.9-28.1"/>
					<path fill="none" stroke="#000099" stroke-width="2" stroke-miterlimit="10" d="M-51.1,458.2c0,0,24.7-2.7,55.9-11.5"/>
					<path fill="none" stroke="#000099" stroke-width="2" stroke-miterlimit="10" d="M-47.5,434.3c0,0,34.6-27.1,64.6-37"/>
					<path fill="none" stroke="#000099" stroke-width="2" stroke-miterlimit="10" d="M-45.3,423.2c0,0,48.4-43.9,73.4-47"/>
					<path fill="none" stroke="#000099" stroke-width="2" stroke-miterlimit="10" d="M-41.1,406.3c0,0,12.4-7.5,30.2-21.399
						C6.9,371,35.9,360,35.9,360"/>
					<path fill="none" stroke="#000099" stroke-width="2" stroke-miterlimit="10" d="M-37.3,385.9c0,0,28.3-9.7,38.3-14.301
						c10-4.699,25.7-16.3,38.7-20"/>
					<path fill="none" stroke="#000099" stroke-width="2" stroke-miterlimit="10" d="M-36.2,377.1c0,0,32.4-19.3,48.2-26.699
						c15.8-7.4,34.1-14,34.1-14"/>
					<path fill="none" stroke="#000099" stroke-width="2" stroke-miterlimit="10" d="M-35,367.3c0,0,31.9-15.2,44.6-21
						c12.7-5.8,38.9-15.899,38.9-15.899"/>
					<path fill="none" stroke="#000099" stroke-width="2" stroke-miterlimit="10" d="M-34,357.9c0,0,32.3-19.301,49.7-28.101
						C33.1,321,54,314.2,54,314.2"/>
					<path fill="none" stroke="#000099" stroke-width="2" stroke-miterlimit="10" d="M-32.7,345.5c0,0,22.1-9.2,43.4-20.4
						C32,313.9,54.8,311.4,54.8,311.4"/>
					<path fill="none" stroke="#000099" stroke-width="2" stroke-miterlimit="10" d="M-31.6,334.9c0,0,35.2-19.301,51-26.7
						c15.8-7.4,38.2-13.5,38.2-13.5"/>
					<path fill="none" stroke="#000099" stroke-width="2" stroke-miterlimit="10" d="M-30.7,326.7c0,0,21.4-8.9,36.2-19.7
						S57,288.4,57,288.4"/>
					<path fill="none" stroke="#000099" stroke-width="2" stroke-miterlimit="10" d="M-29.8,318.7c0,0,17.3-9.9,34.4-21.8
						s46.8-31.2,46.8-31.2"/>
					<path fill="none" stroke="#000099" stroke-width="2" stroke-miterlimit="10" d="M-28.5,308.2c0,0,7.7-7.8,28.1-21.9
						c20.4-14.3,48-32.2,48-32.2"/>
					<path fill="none" stroke="#000099" stroke-width="2" stroke-miterlimit="10" d="M-26.7,294c0,0,10.8-8.3,29.5-18.8
						c18.7-10.5,41.3-32.3,41.3-32.3"/>
					<path fill="none" stroke="#000099" stroke-width="2" stroke-miterlimit="10" d="M-25.4,284.4c0,0,16.3-17,33.9-28
						s33-22.7,33-22.7"/>
					<path fill="none" stroke="#000099" stroke-width="2" stroke-miterlimit="10" d="M-23.8,274.1c0,0,19.3-19.8,32.3-28.7
						S38.6,215,38.6,215"/>
					<path fill="none" stroke="#000099" stroke-width="2" stroke-miterlimit="10" d="M-22.1,263.6c0,0,17.1-20.1,28.9-30.1
						c11.9-10,35.9-41.7,35.9-41.7"/>
					<path fill="none" stroke="#000099" stroke-width="2" stroke-miterlimit="10" d="M-19.5,248.9c0,0,18.9-19.6,30.8-30.2
						c11.8-10.5,24.7-38.2,34-46.7"/>
					<path fill="none" stroke="#000099" stroke-width="2" stroke-miterlimit="10" d="M-15.4,228.1c0,0,10.4-11.7,25.2-24.1
						c14.8-12.4,35.6-38.3,35.6-38.3"/>
					<path fill="none" stroke="#000099" stroke-width="2" stroke-miterlimit="10" d="M-11.9,212.9c0,0,10.8-11.6,24.6-25.6
						c13.8-14,32.5-27.9,32.5-27.9"/>
					<path fill="none" stroke="#000099" stroke-width="2" stroke-miterlimit="10" d="M-6.5,192.1c0,0,11.1-17.8,21.3-27.6
						c10.2-9.8,28.1-22.3,28.1-22.3"/>
					<path fill="none" stroke="#000099" stroke-width="2" stroke-miterlimit="10" d="M-9.4,202.9c0,0,5.8-3.2,19.2-20.6
						C23.2,164.9,44,148.5,44,148.5"/>
					<path fill="none" stroke="#000099" stroke-width="2" stroke-miterlimit="10" d="M1.3,167.5c0,0,7.8-12.5,19.3-22.8
						c11.5-10.3,21.8-15.5,21.8-15.5"/>
					<path fill="none" stroke="#000099" stroke-width="2" stroke-miterlimit="10" d="M8.9,147.3c0,0,10.1-11.8,19.8-17.4
						c9.7-5.7,19.2-21,19.2-21"/>
					<path fill="none" stroke="#000099" stroke-width="2" stroke-miterlimit="10" d="M16.9,129.3c0,0,9.2-12.6,16.9-18.5
						c7.7-5.9,18.5-16.2,18.5-16.2"/>
					<line fill="none" stroke="#000099" stroke-width="2" stroke-miterlimit="10" x1="28.5" y1="107.7" x2="54.4" y2="82.7"/>
					<path fill="none" stroke="#000099" stroke-width="2" stroke-miterlimit="10" d="M-30.3,322.9c0,0,32.1-21.9,42.8-26.9
						c10.7-5.1,41.9-19.7,41.9-19.7"/>
					<path fill="none" stroke="#000099" stroke-width="2" stroke-miterlimit="10" d="M-48.2,438.5c0,0,16.8-6.6,29.2-13.7
						c12.4-7.1,34.2-20,34.2-20"/>
					<path fill="none" stroke="#000099" stroke-width="2" stroke-miterlimit="10" d="M-16.8,118.1c0,0,6.3,17,10.4,22.2
						c4.1,5.2,7.5,9.1,7.5,9.1"/>
					<path fill="none" stroke="#000099" stroke-width="2" stroke-miterlimit="10" d="M-11.2,109c0,0,4.3,20.1,14.3,36.4"/>
					<path fill="none" stroke="#000099" stroke-width="2" stroke-miterlimit="10" d="M-4.3,100.1c0,0,1.5,17.7,3.1,25.8
						c1.6,8.1,6.3,15.7,6.3,15.7"/>
					<path fill="none" stroke="#000099" stroke-width="2" stroke-miterlimit="10" d="M7.9,136.2c0,0-4.3-20-3.5-28.1
						c0.8-8.1,3.1-16.2,3.1-16.2"/>
					<path fill="none" stroke="#000099" stroke-width="2" stroke-miterlimit="10" d="M15.6,88.1c0,0-6.7,26.9-2.2,38.4"/>
					<path fill="none" stroke="#000099" stroke-width="2" stroke-miterlimit="10" d="M18.1,118.9c0,0,6.5-21,7-35.1"/>
					<line fill="none" stroke="#000099" stroke-width="2" stroke-miterlimit="10" x1="31.4" y1="80.8" x2="29.7" y2="101.7"/>
					<path fill="none" stroke="#000099" stroke-width="2" stroke-miterlimit="10" d="M34.6,95.2c0,0-1.7-7.9,6.3-17.9"/>
				</g>
				<g>
					<g>
						<path fill="#0000AA" stroke="#000099" stroke-width="2" stroke-miterlimit="10" d="M589.8,428.5
							c-6.399,16.2,20.8,49.4,22.5,54.2s2.601,18,2.601,18s27.899-25.8,24.6-38.5s-9.6-31.5-6.5-36.601l0,0
							C618.2,421.3,589.8,428.5,589.8,428.5z"/>
						<path fill="#0000D1" stroke="#000099" stroke-width="2" stroke-linejoin="round" stroke-miterlimit="10" d="M608.5,425.1
							c1,8.2,11,30.801,13.3,38.801s-7,36.699-7,36.699S626.3,482.4,626,464.2c-0.1-5.4-11.7-39.7-11.7-39.7L608.5,425.1z"/>
						<path fill="#1111FF" stroke="#000099" stroke-width="2" stroke-miterlimit="10" d="M834.3,633.6c8.601-10.1,27-33.8,31.7-43.8
							c-6.5-11-13.2-27.5-17.4-35.899C834.7,525.6,801.3,507.1,793.5,494.6S780,455.2,766.7,443.3c-1.5-1.3-3-2.6-4.601-3.899
							c-1,7-2.199,14.199-3.1,17.399c-1.8,7-21.7,26.7-21.7,26.7s13.9-16.6,16.7-25c1.4-4.3,2.3-14.5,2.8-23.2
							c-11.899-8.899-21.2-19.899-29.5-31c-10.5-14.2-30-15.6-46.1-19.3c-16.101-3.7-46,2.1-63.7,13.2
							c-17.7,11-24.2,18.899-27.6,30.3c0,0,41.199-10.3,50.199,1.4c9,11.699,13.801,39.6,36.4,58.199c17,14,21.6,41.601,25.6,62.801
							c7.801,1.1,18.2,2.399,23.101,2.6c8.399,0.3,34.399-5.5,34.399-5.5s-21,9-28.8,10c-4.8,0.6-17.8,0.2-27.2-0.1
							c0.9,4.3,1.801,8.1,2.9,11.3c2.1,6.2,4.3,12.8,6.9,19.399c7.3-0.3,18.3-1,26.6-2.8c13.5-2.899,34.1-10.899,34.1-10.899
							l1.601,2.899c0,0-31.5,10-38.5,12.4c-4.3,1.5-14.4,2.899-21.601,3.899C721.1,606.2,729,617.5,742.4,624.9
							c22.6,12.5,27.699,43.6,41.1,49.8c11,5.1,40.3,7.1,69-22.8c15.2-15.9,23.9-40.9,16.6-56.101
							C859.6,608.7,834.3,633.6,834.3,633.6z"/>
						<path fill="#1111FF" stroke="#000099" stroke-width="2" stroke-miterlimit="10" d="M854.1,680.5c0,0-40.899-42.1-66.199-82
							c-25.301-39.9-80.101-156-105.301-177c-19.199-16-55.1-19.5-66.899-20.2c-3.7-0.2,1.7-3.2,1.7-3.2s36.5-7.6,73.399,22.7
							c36.9,30.3,96.8,158.4,111.9,177.8C817.8,617.9,859.8,660,869.6,667C869.5,667,874.3,681,854.1,680.5z"/>
						<path fill="none" stroke="#000099" stroke-width="2" stroke-miterlimit="10" d="M818,639.7c0,0-13.5,10-20,13.3
							s-26,8.9-26,8.9"/>
						<path fill="none" stroke="#000099" stroke-width="2" stroke-miterlimit="10" d="M815.3,613.3c0,0,13.4-18.2,19.3-30.3
							c5.9-12.1,12.4-32.4,12.4-32.4"/>
						<path fill="none" stroke="#000099" stroke-width="2" stroke-miterlimit="10" d="M809.6,606.9c0,0,11.7-11.601,13.9-19.5
							c2.2-7.9,18.6-44.301,18.6-44.301"/>
						<path fill="none" stroke="#000099" stroke-width="2" stroke-miterlimit="10" d="M802.7,598.6c0,0,7.2-12.899,11.899-22.399
							c4.7-9.5,19.4-43.2,19.4-43.2"/>
						<path fill="none" stroke="#000099" stroke-width="2" stroke-miterlimit="10" d="M827.4,526.3c0,0-13.101,15.101-15.9,26.2
							c-2.9,11-13.6,38.9-13.6,38.9"/>
						<path fill="none" stroke="#000099" stroke-width="2" stroke-miterlimit="10" d="M792.6,582.3c0,0,6.301-15.7,9.301-25.399
							c3-9.7,16.5-39,16.5-39"/>
						<path fill="none" stroke="#000099" stroke-width="2" stroke-miterlimit="10" d="M786.5,571.5c0,0,9.4-18.7,16.4-28.8
							c7-10.101,8.699-30.601,8.699-30.601"/>
						<path fill="none" stroke="#000099" stroke-width="2" stroke-miterlimit="10" d="M782.2,563.7c0,0,6.7-19.601,12.2-28.4
							c5.5-8.7,10.8-28.6,10.8-28.6"/>
						<path fill="none" stroke="#000099" stroke-width="2" stroke-miterlimit="10" d="M775.4,551.1c0,0,9.8-18,13.399-27.1
							c3.601-9.1,10.101-23.1,10.101-23.1"/>
						<path fill="none" stroke="#000099" stroke-width="2" stroke-miterlimit="10" d="M770.4,542c0,0,3.3-16.6,7.899-26.1
							c4.601-9.5,12.601-26.2,12.601-26.2"/>
						<path fill="none" stroke="#000099" stroke-width="2" stroke-miterlimit="10" d="M764.6,531.4c0,0,5.2-13.801,9.301-24.7
							c4.1-10.9,11.6-29.4,11.6-29.4"/>
						<path fill="none" stroke="#000099" stroke-width="2" stroke-miterlimit="10" d="M759.6,522.3c0,0,8.801-18.6,13.2-29.1
							c4.5-10.5,7.9-27.8,7.9-27.8"/>
						<path fill="none" stroke="#000099" stroke-width="2" stroke-miterlimit="10" d="M753.7,511.7c0,0,7-12.101,12.6-18.8
							c5.601-6.7,13.3-29.9,13.3-29.9"/>
						<path fill="none" stroke="#000099" stroke-width="2" stroke-miterlimit="10" d="M749.3,504c0,0,6.8-14.8,12.601-23.9
							c5.8-9.1,13.3-25.699,13.3-25.699"/>
						<path fill="none" stroke="#000099" stroke-width="2" stroke-miterlimit="10" d="M769.2,444.8c0,0-4.7,11.4-7.8,19.601
							C758.3,472.6,744.2,495,744.2,495"/>
						<path fill="none" stroke="#000099" stroke-width="2" stroke-miterlimit="10" d="M733.1,476.5c0,0,3.7-12.8,9.9-19.8
							s8.6-25.601,8.6-25.601"/>
						<path fill="none" stroke="#000099" stroke-width="2" stroke-miterlimit="10" d="M727,466.8c0,0,2.7-11.8,6.7-19.8
							s11.7-21.4,11.7-21.4"/>
						<path fill="none" stroke="#000099" stroke-width="2" stroke-miterlimit="10" d="M721.6,458.5c0,0,5.4-11.5,9.2-20.2
							s6-22.1,6-22.1"/>
						<path fill="none" stroke="#000099" stroke-width="2" stroke-miterlimit="10" d="M716.2,450.6c0,0,2-8.199,6.8-17.3
							c4.7-9.1,6.4-26.2,6.4-26.2"/>
						<path fill="none" stroke="#000099" stroke-width="2" stroke-miterlimit="10" d="M708.9,440.7c0,0,3.5-14.7,6.6-23.2
							c3.2-8.5,6.3-18.9,6.3-18.9"/>
						<path fill="none" stroke="#000099" stroke-width="2" stroke-miterlimit="10" d="M703,433.2c0,0,0.1-12.2,1.4-21.4
							c1.3-9.2,4.199-20.399,4.199-20.399"/>
						<path fill="none" stroke="#000099" stroke-width="2" stroke-miterlimit="10" d="M697.5,388.4c0,0,0.8,15.3,0.3,19.899
							c-0.5,4.7-2.8,16.3-2.8,16.3"/>
						<path fill="none" stroke="#000099" stroke-width="2" stroke-miterlimit="10" d="M684.4,385.7c0,0,6.3,12.399,6.3,18.2
							c0,5.8,0.1,17,0.1,17"/>
						<path fill="none" stroke="#000099" stroke-width="2" stroke-miterlimit="10" d="M683.9,415.6c0,0-3.601-12.199-4.7-17.8
							c-1.101-5.6-4.7-13.7-4.7-13.7"/>
						<path fill="none" stroke="#000099" stroke-width="2" stroke-miterlimit="10" d="M667,383.9c0,0,3.5,6.1,5.1,11.6
							C673.7,401,676.9,411,676.9,411"/>
						<path fill="none" stroke="#000099" stroke-width="2" stroke-miterlimit="10" d="M659,384.5c0,0,2.3,14.7,8.9,21.8"/>
						<path fill="none" stroke="#000099" stroke-width="2" stroke-miterlimit="10" d="M659.4,402.8c0,0-2.7-6.8-3.4-10
							s-0.3-7.8-0.3-7.8"/>
						<path fill="none" stroke="#000099" stroke-width="2" stroke-miterlimit="10" d="M650.2,400c0,0-4.2-5.5-4.7-13.6"/>
						<path fill="none" stroke="#000099" stroke-width="2" stroke-miterlimit="10" d="M642.2,398.4c0,0-5-4.301,0-10.601"/>
						<path fill="none" stroke="#000099" stroke-width="2" stroke-miterlimit="10" d="M635.1,397.5c0,0-1.1-2.8,1.801-8.2"/>
						<path fill="none" stroke="#000099" stroke-width="2" stroke-miterlimit="10" d="M767.3,653.6c0,0,10.601-5.6,18.9-8.399
							s27.6-10.8,27.6-10.8"/>
						<path fill="none" stroke="#000099" stroke-width="2" stroke-miterlimit="10" d="M810.1,629.8c0,0-11.699,3-20.6,5
							s-27.8,9.5-27.8,9.5"/>
						<path fill="none" stroke="#000099" stroke-width="2" stroke-miterlimit="10" d="M758,638.9c0,0,16.5-6.101,23.5-8.101
							s23.2-8.1,23.2-8.1"/>
						<path fill="none" stroke="#000099" stroke-width="2" stroke-miterlimit="10" d="M800.2,616.6c0,0-12.3,4.301-18,6.2
							c-5.7,1.9-30.4,9-30.4,9"/>
						<path fill="none" stroke="#000099" stroke-width="2" stroke-miterlimit="10" d="M746.1,627.2c0,0,16.4-5.4,26-8.9
							c9.601-3.5,24.301-6.8,24.301-6.8"/>
						<path fill="none" stroke="#000099" stroke-width="2" stroke-miterlimit="10" d="M791.8,604.6c0,0-16.5,4.301-23.5,5.801
							s-31.5,10.8-31.5,10.8"/>
						<path fill="none" stroke="#000099" stroke-width="2" stroke-miterlimit="10" d="M729.4,614.9c0,0,16-4.601,26-6.9
							c10.1-2.3,32.399-9.5,32.399-9.5"/>
						<path fill="none" stroke="#000099" stroke-width="2" stroke-miterlimit="10" d="M784.6,593.2c0,0-10.5,2.2-20.5,5.1
							c-10,2.9-39.199,11.4-39.199,11.4"/>
						<path fill="none" stroke="#000099" stroke-width="2" stroke-miterlimit="10" d="M721.5,604.8c0,0,17.3-5.8,28.7-8.899
							C761.6,592.8,779.7,584.8,779.7,584.8"/>
						<path fill="none" stroke="#000099" stroke-width="2" stroke-miterlimit="10" d="M711,582.6c0,0,15.1-1,23.1-2.3
							c7.9-1.3,37.601-9.6,37.601-9.6"/>
						<path fill="none" stroke="#000099" stroke-width="2" stroke-miterlimit="10" d="M769.1,565.9c0,0-19.699,6.199-27.6,7.899
							s-31.9,4.9-31.9,4.9"/>
						<path fill="none" stroke="#000099" stroke-width="2" stroke-miterlimit="10" d="M707.7,573.2c0,0,14.7-4.2,23.899-5
							c9.2-0.8,35.7-5.4,35.7-5.4"/>
						<path fill="none" stroke="#000099" stroke-width="2" stroke-miterlimit="10" d="M765,558.5c0,0-28.7,4.9-34.4,5.1
							c-5.8,0.101-25.8,1-25.8,1"/>
						<path fill="none" stroke="#000099" stroke-width="2" stroke-miterlimit="10" d="M700.6,543.4c0,0,18.7,4.199,27.801,2.8
							c9.1-1.4,28-3.9,28-3.9"/>
						<path fill="none" stroke="#000099" stroke-width="2" stroke-miterlimit="10" d="M699.7,539c0,0,10.899,1,21.399-0.7
							c10.5-1.8,32.101-1.8,32.101-1.8"/>
						<path fill="none" stroke="#000099" stroke-width="2" stroke-miterlimit="10" d="M698.3,532.2c0,0,18.101-0.101,26-1.7
							c7.9-1.6,23.9-3.5,23.9-3.5"/>
						<path fill="none" stroke="#000099" stroke-width="2" stroke-miterlimit="10" d="M696.4,524.8c0,0,18.399-2.8,26.199-2.5
							c7.9,0.3,22.101-1.5,22.101-1.5"/>
						<path fill="none" stroke="#000099" stroke-width="2" stroke-miterlimit="10" d="M694.5,518.1c0,0,9.4-4.6,20-6.899
							s24.6-1.101,24.6-1.101"/>
						<path fill="none" stroke="#000099" stroke-width="2" stroke-miterlimit="10" d="M735.4,503.4c0,0-22.101,2.899-28.7,4.5
							c-6.601,1.6-15.2,1.699-15.2,1.699"/>
						<path fill="none" stroke="#000099" stroke-width="2" stroke-miterlimit="10" d="M687.7,502.2c0,0,14.5-3.4,22.899-3.9
							c8.4-0.5,21.9-0.1,21.9-0.1"/>
						<path fill="none" stroke="#000099" stroke-width="2" stroke-miterlimit="10" d="M727.2,488.6c0,0-14.5,0.801-22,2.801
							S685,498.3,685,498.3"/>
						<path fill="none" stroke="#000099" stroke-width="2" stroke-miterlimit="10" d="M680.9,492.4c0,0,14.5-3.101,22.899-5.9
							c8.4-2.8,20.601-3,20.601-3"/>
						<path fill="none" stroke="#000099" stroke-width="2" stroke-miterlimit="10" d="M721,477.5c0,0-21.6-0.2-28.6,1.1
							c-7,1.301-20.801,5.101-20.801,5.101"/>
						<path fill="none" stroke="#000099" stroke-width="2" stroke-miterlimit="10" d="M663.5,474.3c0,0,10.3-3.7,21.6-3.3
							c11.301,0.4,30.2-3.5,30.2-3.5"/>
						<path fill="none" stroke="#000099" stroke-width="2" stroke-miterlimit="10" d="M711,460.5c0,0-17.1,3.4-23.8,4.3
							c-6.7,0.9-27.7,3.601-27.7,3.601"/>
						<path fill="none" stroke="#000099" stroke-width="2" stroke-miterlimit="10" d="M656.8,463.6c0,0,11.3-3.6,23.601-6.5
							C692.7,454.2,707.6,454.9,707.6,454.9"/>
						<path fill="none" stroke="#000099" stroke-width="2" stroke-miterlimit="10" d="M704.5,449.9c0,0-10.8-2.4-21-1.801
							c-10.1,0.601-31,7.2-31,7.2"/>
						<path fill="none" stroke="#000099" stroke-width="2" stroke-miterlimit="10" d="M650,449.7c0,0,17.1-7.601,27-9.3
							c9.9-1.7,20.7-0.7,20.7-0.7"/>
						<path fill="none" stroke="#000099" stroke-width="2" stroke-miterlimit="10" d="M693.2,433.3c0,0-17.7,2.7-23.7,3.7
							s-21.8,5.9-21.8,5.9"/>
						<path fill="none" stroke="#000099" stroke-width="2" stroke-miterlimit="10" d="M644.9,438.4c0,0,8.399-6.101,16.8-8.101
							c8.399-1.899,23.6-5.8,23.6-5.8"/>
						<path fill="none" stroke="#000099" stroke-width="2" stroke-miterlimit="10" d="M679.7,419.3c0,0-11.101,2.2-19,4.2
							c-7.9,2-19,8.8-19,8.8"/>
						<path fill="none" stroke="#000099" stroke-width="2" stroke-miterlimit="10" d="M636.5,427c0,0,7.6-6.3,14-8.6
							c6.5-2.2,17.3-5.9,17.3-5.9"/>
						<path fill="none" stroke="#000099" stroke-width="2" stroke-miterlimit="10" d="M661.8,410.2c0,0-9.7,3.2-15.8,5.399
							c-6.1,2.301-20,8.801-20,8.801"/>
						<path fill="none" stroke="#000099" stroke-width="2" stroke-miterlimit="10" d="M620.6,424.3c0,0,16.7-13.8,30.9-17.3"/>
						<path fill="none" stroke="#000099" stroke-width="2" stroke-miterlimit="10" d="M614.3,424.5c0,0,14.5-17.2,25.2-20.9"/>
						<path fill="none" stroke="#000099" stroke-width="2" stroke-miterlimit="10" d="M603.6,425.8c0,0,14.2-17.5,29.801-22.6"/>
						<path fill="none" stroke="#000099" stroke-width="2" stroke-miterlimit="10" d="M596.9,426.9c0,0,4.5-10.301,9.5-15.5
							c5.1-5.2,16.1-9.601,16.1-9.601"/>
						<path fill="none" stroke="#000099" stroke-width="2" stroke-miterlimit="10" d="M609.1,428.2c0,0-14.1,9.6-19.3,12.7"/>
						<path fill="none" stroke="#000099" stroke-width="2" stroke-miterlimit="10" d="M591.7,447.2c0,0,15.7-3.2,19.6-11.5"/>
						<path fill="none" stroke="#000099" stroke-width="2" stroke-miterlimit="10" d="M596.2,456.5c0,0,6.6-4.1,9.5-7.1
							c2.899-3.101,7.5-8.4,7.5-8.4"/>
						<path fill="none" stroke="#000099" stroke-width="2" stroke-miterlimit="10" d="M601.1,465c0,0,11.601-8.1,14.9-16.7"/>
						<path fill="none" stroke="#000099" stroke-width="2" stroke-miterlimit="10" d="M605.3,471.5c0,0,1-4.8,5.3-9
							c4.301-4.3,7.601-9.2,7.601-9.2"/>
						<path fill="none" stroke="#000099" stroke-width="2" stroke-miterlimit="10" d="M620.3,459.5c0,0-5.899,14.9-9.1,21.1"/>
						<path fill="none" stroke="#000099" stroke-width="2" stroke-miterlimit="10" d="M625.2,473.8c0,0,1.7,8.7,3.899,11.4"/>
						<path fill="none" stroke="#000099" stroke-width="2" stroke-miterlimit="10" d="M626.1,464.2c0,0,2.801,8.6,4.101,9.8
							s3.6,4.8,3.6,4.8"/>
						<path fill="none" stroke="#000099" stroke-width="2" stroke-miterlimit="10" d="M624,454.1c0,0,6.3,7.5,8.1,10.301
							c1.801,2.899,6,6.899,6,6.899"/>
						<path fill="none" stroke="#000099" stroke-width="2" stroke-miterlimit="10" d="M621.8,446.3c0,0,8.2,9.101,16.7,12.5"/>
						<line fill="none" stroke="#000099" stroke-width="2" stroke-miterlimit="10" x1="619.6" y1="440" x2="635.3" y2="447.2"/>
						<path fill="none" stroke="#000099" stroke-width="2" stroke-miterlimit="10" d="M617.4,433.6c0,0,11.3,1.9,16.3,7.4"/>
						<line fill="none" stroke="#000099" stroke-width="2" stroke-miterlimit="10" x1="615.2" y1="427.1" x2="632.2" y2="431"/>
					</g>
					<g>
						<path fill="#0000D1" stroke="#000099" stroke-width="2" stroke-miterlimit="10" d="M860.1,752.6
							c-14-5.199-38.199,4.5-59.8,0.601c-2.6-0.5-5.399-1.3-8.5-2.5V750.6c0,0,18.9-14.199,23.7-17.8c4.8-3.5,20.2-18.1,20.2-18.1
							S812.3,730.1,802.1,737.8c-10.1,7.7-15.399,10.7-15.399,10.7c-22.9-9.9-54.5-32.1-66.101-41.6
							c-14.3-11.601-39.1-16.801-52.5-27.4c-11.899-9.4-32.899-40.6-61.199-56.4c3.399-1.8,6.699-3.3,9-4c6.6-2,29.1-7.1,29.1-7.1
							l-14.9-10.4c0,0-13.5,3.2-24.3,5.101c-5.6,1-13.2,4.2-19.1,7.1c-17.601-9.3-30-23.5-37.601-32.2
							c-8.8-10.199-25.199-20.1-25.199-20.1c20.3-14.1,51.8-33.3,80.399-21.6c28,11.5,36.101-0.301,61.8,11.8
							c16.4,7.8,42.101,10.7,64.2,16.1c4,9.7,9.601,23.8,13.5,36.4c6.601,21.7,5.2,20.5,14.3,40c9.101,19.5,12.5,41.899,12.5,41.899
							l5.601,2.2c0,0-5.3-25.7-12-40.899c-5.3-11.801-18.4-57-24-76.9c8.5,2.6,16.2,5.9,21.899,10.2c21.9,16.6,41.9,38,60.801,42.6
							c18.8,4.5,41.1,12.3,54,34.4c12.8,22.1,13.8,16.2,18.3,32.1c4.5,15.8,3.6,35.9,3.6,35.9l-6.7,12
							C892,737.6,874,757.8,860.1,752.6z"/>
						<path fill="#1111FF" stroke="#000099" stroke-width="2" stroke-miterlimit="10" d="M523.8,561.5c0,0,50.3,1.8,81.7,17.2
							c31.4,15.399,138.8,91.8,159.9,104.8c21.1,12.9,92.399,20.2,112.399,30.3c20,10.2,38.7,24.8,46.4,22.8
							c0,0,8.5,9.601,0.8,19.301c0,0-25.2-11.7-45-26.5c-19.7-14.7-86.7-18.101-117.5-36.301C731.7,674.9,628,599,603.9,584.3
							C580.1,569.6,523.8,561.5,523.8,561.5z"/>
						<path fill="none" stroke="#000099" stroke-width="2" stroke-miterlimit="10" d="M640.5,650.5c0,0,6.9-1.7,17.2-5
							s27.8-5.5,27.8-5.5"/>
						<path fill="none" stroke="#000099" stroke-width="2" stroke-miterlimit="10" d="M631.4,641.6c0,0,15.699-1.199,23.3-3.899
							c7.6-2.7,18.399-5.7,18.399-5.7"/>
						<path fill="none" stroke="#000099" stroke-width="2" stroke-miterlimit="10" d="M625.1,635.9c0,0,9.2-2.5,19.4-5.4
							c10.3-2.8,21.7-3.5,21.7-3.5"/>
						<path fill="none" stroke="#000099" stroke-width="2" stroke-miterlimit="10" d="M618.2,630.5c0,0,17-2.5,22.5-5.5
							s16-4.8,16-4.8"/>
						<path fill="none" stroke="#000099" stroke-width="2" stroke-miterlimit="10" d="M610.1,625.1c0,0,9.801-4.1,18.601-6
							c8.8-1.8,22-3,22-3"/>
						<path fill="none" stroke="#000099" stroke-width="2" stroke-miterlimit="10" d="M581.6,611c0,0,12.7-6.2,22.9-8.1
							c10.1-1.9,21.4-4,21.4-4"/>
						<path fill="none" stroke="#000099" stroke-width="2" stroke-miterlimit="10" d="M573.1,605.2c0,0,15.601-5.601,22.2-7.601
							c6.601-2,19-6.699,19-6.699"/>
						<path fill="none" stroke="#000099" stroke-width="2" stroke-miterlimit="10" d="M563.9,597.4c0,0,11-0.801,19.6-3.7
							c8.5-2.9,22.5-8.3,22.5-8.3"/>
						<path fill="none" stroke="#000099" stroke-width="2" stroke-miterlimit="10" d="M559,592.6c0,0,8.5-6.699,18.6-7.3
							c10.101-0.6,21.4-3.7,21.4-3.7"/>
						<path fill="none" stroke="#000099" stroke-width="2" stroke-miterlimit="10" d="M552.7,585.9c0,0,7.6-4,13-5.601
							c5.399-1.6,18.1-4.899,18.1-4.899"/>
						<path fill="none" stroke="#000099" stroke-width="2" stroke-miterlimit="10" d="M547.1,579.5c0,0,20.801-9,23.9-8.1"/>
						<path fill="none" stroke="#000099" stroke-width="2" stroke-miterlimit="10" d="M541.8,574.5c0,0,14.3-7,20.3-5.5"/>
						<path fill="none" stroke="#000099" stroke-width="2" stroke-miterlimit="10" d="M535.5,569.5c0,0,5.7-5.1,12.3-3.7"/>
						<path fill="none" stroke="#000099" stroke-width="2" stroke-miterlimit="10" d="M534.1,554.6c0,0,12,8.601,20.7,10"/>
						<path fill="none" stroke="#000099" stroke-width="2" stroke-miterlimit="10" d="M541.5,550.2c0,0,10.5,6.899,13.2,10.899
							c2.7,3.9,13.2,5.801,13.2,5.801"/>
						<path fill="none" stroke="#000099" stroke-width="2" stroke-miterlimit="10" d="M553.7,543.9c0,0,6.7,7.3,11.7,13.3
							s13.3,12,13.3,12"/>
						<path fill="none" stroke="#000099" stroke-width="2" stroke-miterlimit="10" d="M566.2,539.2c0,0,8.8,14.399,14.7,21.1
							c5.8,6.7,15.699,14.4,15.699,14.4"/>
						<path fill="none" stroke="#000099" stroke-width="2" stroke-miterlimit="10" d="M574.2,537.3c0,0,10.1,18.7,14.8,24.7
							c4.8,6,16.5,16.6,16.5,16.6"/>
						<path fill="none" stroke="#000099" stroke-width="2" stroke-miterlimit="10" d="M586.7,536.3c0,0,5.5,18.601,8.6,23
							c3.101,4.3,17.7,23.5,17.7,23.5"/>
						<path fill="none" stroke="#000099" stroke-width="2" stroke-miterlimit="10" d="M597.7,537.7c0,0,6.6,15.2,10.899,26
							c4.301,10.8,13,24,13,24"/>
						<path fill="none" stroke="#000099" stroke-width="2" stroke-miterlimit="10" d="M610.8,542.3c0,0,1.8,11.4,10.601,27.3
							C630.1,585.5,638.1,598,638.1,598"/>
						<path fill="none" stroke="#000099" stroke-width="2" stroke-miterlimit="10" d="M621.1,544.7c0,0,7,15.6,15.9,32.399
							c8.9,16.801,14.5,28.9,14.5,28.9"/>
						<path fill="none" stroke="#000099" stroke-width="2" stroke-miterlimit="10" d="M628.7,545.4c0,0,8.8,15.1,15.899,31
							C651.7,592.3,664.5,614.8,664.5,614.8"/>
						<path fill="none" stroke="#000099" stroke-width="2" stroke-miterlimit="10" d="M641.4,545.6c0,0,5.1,21.101,12.5,31.5
							c7.3,10.4,17,25.601,20.699,34.301c3.7,8.699,13.9,20,13.9,20"/>
						<path fill="none" stroke="#000099" stroke-width="2" stroke-miterlimit="10" d="M651.5,546.7c0,0-1.3,6.7,10.2,28
							s32.8,60.7,32.8,60.7"/>
						<path fill="none" stroke="#000099" stroke-width="2" stroke-miterlimit="10" d="M662.6,550.1c0,0,3,12.301,8.601,24.801
							c5.6,12.5,12.399,18.1,18.6,31.899s18,37.601,18,37.601"/>
						<path fill="none" stroke="#000099" stroke-width="2" stroke-miterlimit="10" d="M674.7,555.1c0,0,7.399,22.101,12.899,32.5
							c5.5,10.4,17,27,22.801,38.4c5.8,11.5,8.1,25.8,8.1,25.8"/>
						<path fill="none" stroke="#000099" stroke-width="2" stroke-miterlimit="10" d="M683.9,557.8c0,0,2.8,5,9.399,20.4
							C699.9,593.6,706,598.5,713,616.4c7,17.899,15.8,42.399,15.8,42.399"/>
						<path fill="none" stroke="#000099" stroke-width="2" stroke-miterlimit="10" d="M701.2,561.7c0,0,2.7,19.6,9.2,32.2
							c6.5,12.6,18.699,34.199,21.5,43.5c2.8,9.3,7.8,28.899,7.8,28.899"/>
						<path fill="none" stroke="#000099" stroke-width="2" stroke-miterlimit="10" d="M713.7,564.2c0,0,5.1,22.1,12.899,40.8
							c7.801,18.7,13.801,24.3,20.301,39.9c6.5,15.6,6.1,30.399,6.1,30.399"/>
						<path fill="none" stroke="#000099" stroke-width="2" stroke-miterlimit="10" d="M724.3,566.9c0,0,4.4,17.199,9.2,31.5
							c4.8,14.3,21.2,49,24.6,61.3c3.4,12.3,7.4,23.7,7.4,23.7"/>
						<path fill="none" stroke="#000099" stroke-width="2" stroke-miterlimit="10" d="M745.2,572.1c0,0,5.5,12.101,11.3,34.4
							s12.1,36.3,17.7,50.6c5.6,14.2,8.8,33.4,8.8,33.4"/>
						<path fill="none" stroke="#000099" stroke-width="2" stroke-miterlimit="10" d="M786.7,691.6c0,0-0.101-20.3-5.8-39.1
							c-5.7-18.8-17-70.3-17-70.3"/>
						<path fill="none" stroke="#000099" stroke-width="2" stroke-miterlimit="10" d="M781.6,596.6c0,0,0.101,17.601,4.2,33.801
							c4.101,16.199,13.4,41.399,14.4,64.5"/>
						<path fill="none" stroke="#000099" stroke-width="2" stroke-miterlimit="10" d="M794.5,607.3c0,0-0.6,12,2.2,26.4
							c2.8,14.399,11.3,28.2,12.6,38.6c1.3,10.4,0.601,24.8,0.601,24.8"/>
						<path fill="none" stroke="#000099" stroke-width="2" stroke-miterlimit="10" d="M801,612.1c0,0,2.3,19.301,8.4,35.4
							c6.1,16.2,9.1,51.3,9.1,51.3"/>
						<path fill="none" stroke="#000099" stroke-width="2" stroke-miterlimit="10" d="M809.6,617.7c0,0,3.601,24.2,9.601,37.8
							c6,13.5,8.3,45.3,8.3,45.3"/>
						<path fill="none" stroke="#000099" stroke-width="2" stroke-miterlimit="10" d="M839.2,703.1c0,0-5.601-12.699-7.3-26
							c-1.7-13.3-11.2-35.899-12.7-54.899"/>
					</g>
					<g>
						<path fill="#1111FF" stroke="#000099" stroke-width="2" stroke-miterlimit="10" d="M905.8,435c-9.3-11.7-35.1-15.7-51.6-30.2
							c-2-1.7-4-3.899-6.101-6.5h0.101c0,0,23.6-2.5,29.399-3.1c5.9-0.601,26.601-5.2,26.601-5.2s-28,1.2-40.7,2.6
							c-12.6,1.4-18.7,1.301-18.7,1.301c-14.6-20.301-30.2-55.5-35.399-69.7c-6.301-17.3-24.9-34.4-31-50.4
							c-5.4-14.2-7.4-51.7-23.5-79.9c3.8,0.2,7.5,0.6,9.8,1.2c6.7,1.7,28.6,8.8,28.6,8.8l-7.5-16.6c0,0-13.2-4.1-23.5-8.1
							c-5.3-2-13.5-3.1-20-3.7c-10.399-17-13.7-35.6-15.7-47c-2.3-13.3-11.3-30.2-11.3-30.2c24.7-1.7,61.5-2,80.101,22.8
							c18.1,24.2,31.199,18.3,47,41.9c10.1,15.1,30.699,30.8,46.899,46.8c-1.5,10.4-3.899,25.4-7.1,38.1
							c-5.5,22-6.101,20.3-8.3,41.7c-2.2,21.4-10.7,42.4-10.7,42.4l3.7,4.8c0,0,8.699-24.7,10.6-41.3c1.5-12.8,13.5-58.4,18.9-78.4
							c6,6.6,10.899,13.3,13.6,20.1c10.3,25.5,16.5,54.2,30.3,67.7c13.8,13.6,29,31.699,28.601,57.199
							c-0.301,25.5,3.5,21-0.801,36.9c-4.3,15.9-15.3,32.7-15.3,32.7l-11.899,6.8C940.9,438.5,915.1,446.6,905.8,435z"/>
						<path fill="#1111FF" stroke="#000099" stroke-width="2" stroke-miterlimit="10" d="M715.3,98.3c0,0,42.3,27.4,61.3,56.7
							c19,29.4,72,150.1,83.4,172s69,64.7,80.9,83.8c11.899,19,20.5,41.101,28.1,43.4c0,0,2.4,12.6-9.2,16.899c0,0-15.6-23-25-45.8
							c-9.399-22.8-65.1-60-82.1-91.5C835.7,302.4,785.6,184,772.5,159C759.4,134.2,715.3,98.3,715.3,98.3z"/>
						<path fill="none" stroke="#000099" stroke-width="2" stroke-miterlimit="10" d="M816.2,340.8c0,0,20,5,25.3,5.3
							c5.4,0.301,20.9,2,20.9,2"/>
						<path fill="none" stroke="#000099" stroke-width="2" stroke-miterlimit="10" d="M813.1,333.6c0,0,23.5-0.899,43.101,6"/>
						<path fill="none" stroke="#000099" stroke-width="2" stroke-miterlimit="10" d="M809.4,324.2c0,0,17.3,2.7,24.6,3.3
							s17.1,3.5,17.1,3.5"/>
						<path fill="none" stroke="#000099" stroke-width="2" stroke-miterlimit="10" d="M804.5,314.2c0,0,13.1,4.1,19.6,6.1
							s23.301,3.3,23.301,3.3"/>
						<path fill="none" stroke="#000099" stroke-width="2" stroke-miterlimit="10" d="M796.8,302.6c0,0,16.8,3.5,26.3,7.801
							c9.5,4.3,21.4,7.199,21.4,7.199"/>
						<path fill="none" stroke="#000099" stroke-width="2" stroke-miterlimit="10" d="M788.3,290.9c0,0,14.9,7.8,25,8.9
							c10.2,1.101,27,9,27,9"/>
						<path fill="none" stroke="#000099" stroke-width="2" stroke-miterlimit="10" d="M781.1,279.6c0,0,12.301,1.3,23.9,5.5
							c11.6,4.2,29.8,11.7,29.8,11.7"/>
						<path fill="none" stroke="#000099" stroke-width="2" stroke-miterlimit="10" d="M829.1,285.4c0,0-16.6-1.1-22.6-2.5
							s-29-11.8-29-11.8"/>
						<path fill="none" stroke="#000099" stroke-width="2" stroke-miterlimit="10" d="M775.2,261.3c0,0,14.8,5,24.6,8.2
							s25.9,7.1,25.9,7.1"/>
						<path fill="none" stroke="#000099" stroke-width="2" stroke-miterlimit="10" d="M773.5,252.9c0,0,11.4,1.7,22.6,4.5
							c11.2,2.8,25.5,10.1,25.5,10.1"/>
						<path fill="none" stroke="#000099" stroke-width="2" stroke-miterlimit="10" d="M771.5,242.7c0,0,11.5,4.9,23.5,8.7
							c12,3.8,22.1,6,22.1,6"/>
						<path fill="none" stroke="#000099" stroke-width="2" stroke-miterlimit="10" d="M769.7,234.7c0,0,6.899,2.1,17.3,4.5
							c10.4,2.5,26.7,9.5,26.7,9.5"/>
						<path fill="none" stroke="#000099" stroke-width="2" stroke-miterlimit="10" d="M766.5,222.4c0,0,14.2,7,22.1,8.6
							c7.9,1.6,18.7,4.5,18.7,4.5"/>
						<path fill="none" stroke="#000099" stroke-width="2" stroke-miterlimit="10" d="M764,214.2c0,0,9.2,2.5,19.4,5.4
							c10.199,2.9,20.5,8.1,20.5,8.1"/>
						<path fill="none" stroke="#000099" stroke-width="2" stroke-miterlimit="10" d="M760.8,206.1c0,0,15.9,6.6,22.101,6.8
							c6.199,0.3,16.199,4.1,16.199,4.1"/>
						<path fill="none" stroke="#000099" stroke-width="2" stroke-miterlimit="10" d="M756.7,197.2c0,0,10.5,1.5,19.1,4.5
							c8.601,3,20.4,8.8,20.4,8.8"/>
						<path fill="none" stroke="#000099" stroke-width="2" stroke-miterlimit="10" d="M739.5,170.5c0,0,14.1,1.2,23.8,4.8
							c9.7,3.6,20.5,7.5,20.5,7.5"/>
						<path fill="none" stroke="#000099" stroke-width="2" stroke-miterlimit="10" d="M735.2,161.2c0,0,16.3,3.2,22.899,4.9
							c6.601,1.7,19.801,4,19.801,4"/>
						<path fill="none" stroke="#000099" stroke-width="2" stroke-miterlimit="10" d="M731.3,149.8c0,0,9.9,5,18.7,6.9
							c8.8,1.9,23.5,4.4,23.5,4.4"/>
						<path fill="none" stroke="#000099" stroke-width="2" stroke-miterlimit="10" d="M729.5,143.2c0,0,10.7-1.4,19.7,3.3
							s20.2,7.8,20.2,7.8"/>
						<path fill="none" stroke="#000099" stroke-width="2" stroke-miterlimit="10" d="M727.6,134.1c0,0,8.601,0.5,14,1.9
							c5.4,1.4,18.101,5.1,18.101,5.1"/>
						<path fill="none" stroke="#000099" stroke-width="2" stroke-miterlimit="10" d="M726,125.8c0,0,22.5,3,24.7,5.3"/>
						<path fill="none" stroke="#000099" stroke-width="2" stroke-miterlimit="10" d="M724,118.8c0,0,15.9,1.3,20.2,5.7"/>
						<path fill="none" stroke="#000099" stroke-width="2" stroke-miterlimit="10" d="M721.2,111.3c0,0,7.5-1.4,12.399,3.1"/>
						<path fill="none" stroke="#000099" stroke-width="2" stroke-miterlimit="10" d="M727.7,97.7c0,0,5.899,13.5,12.6,19.2"/>
						<path fill="none" stroke="#000099" stroke-width="2" stroke-miterlimit="10" d="M736.3,97.7c0,0,5.5,11.4,5.8,16.1
							c0.301,4.7,8.301,11.7,8.301,11.7"/>
						<path fill="none" stroke="#000099" stroke-width="2" stroke-miterlimit="10" d="M749.9,98.6c0,0,2,9.7,3.199,17.4
							c1.2,7.7,5.301,17.2,5.301,17.2"/>
						<path fill="none" stroke="#000099" stroke-width="2" stroke-miterlimit="10" d="M763.1,101c0,0,0.2,16.9,1.801,25.6
							c1.6,8.7,6.1,20.5,6.1,20.5"/>
						<path fill="none" stroke="#000099" stroke-width="2" stroke-miterlimit="10" d="M771,103.5c0,0-1,21.2,0,28.9
							c1,7.6,5.6,22.7,5.6,22.7"/>
						<path fill="none" stroke="#000099" stroke-width="2" stroke-miterlimit="10" d="M782.2,109c0,0-4.8,18.8-4.4,24.1
							c0.5,5.3,3.101,29.2,3.101,29.2"/>
						<path fill="none" stroke="#000099" stroke-width="2" stroke-miterlimit="10" d="M790.9,115.9c0,0-2.101,16.5-4,27.9
							c-1.801,11.5-1.101,27.3-1.101,27.3"/>
						<path fill="none" stroke="#000099" stroke-width="2" stroke-miterlimit="10" d="M799.8,126.5c0,0-4.3,10.7-4.899,28.8
							c-0.601,18.1-0.2,33-0.2,33"/>
						<path fill="none" stroke="#000099" stroke-width="2" stroke-miterlimit="10" d="M807.4,133.9c0,0-2,17-3,36
							c-1,18.9-2.4,32.2-2.4,32.2"/>
						<path fill="none" stroke="#000099" stroke-width="2" stroke-miterlimit="10" d="M813.6,138.4c0,0-0.199,17.5-2.3,34.8
							c-2.1,17.3-2.7,43.2-2.7,43.2"/>
						<path fill="none" stroke="#000099" stroke-width="2" stroke-miterlimit="10" d="M824.4,145.1c0,0-6.4,20.7-5.5,33.4
							c0.899,12.7,1.5,30.7,0.199,40c-1.3,9.3,1.7,24.4,1.7,24.4"/>
					</g>
					<g>
						<path fill="#0000D1" stroke="#000099" stroke-width="2" stroke-miterlimit="10" d="M743.4,300.9c8.5,3.8,15.199,10,21.6,16.5
							c0.6,21.399-1.6,43.1-1.6,43.1c4.899-10.2,8.1-23.2,10.1-34.2c4.5,4.5,9.2,8.7,14.7,12.101c16.899,10.3,41.399,21.8,47.8,50
							c6.4,28.199,34.4,42.399,47,68.6c2.5,5.1,4.5,10.8,6.4,16.9C873.8,501.3,859.1,536.3,859.1,536.3s14.601-27.399,23.7-38.7
							c2.5-3.199,6.101-7.3,9.9-11.699c1.399,5.5,2.6,11.199,3.8,16.699L863.3,546.2l35.2-34.5c2.7,12.7,5.2,24.1,8.5,31.399
							c8,17.7,51.5,71,10.1,103.601c-0.1,0.1-0.1,0.1-0.199,0.2c0.1-0.101,0.199-0.2,0.199-0.2l-13.8,11.5c0,0-38.3,17.7-57.7,0.8
							c-13.1-11.3-19.8-26.6-25.1-42.3c10.7,1.3,59.9,7,68.2,6.7c0,0-52.4-9.9-70.7-14c-3.1-8.4-6.6-16.101-12.2-21.301
							c-17-16.199-53.6-56.8-63-78.6c-9.3-21.8,3.2-72.5-9.1-93.8s-19.4-36-21.7-60.7s-23.8-33.8-31.2-63.6
							C681.547,291.406,725.2,292.8,743.4,300.9z"/>
						<path fill="#1111FF" stroke="#000099" stroke-width="2" stroke-miterlimit="10" d="M931.2,680.5c3.899,11.9-17.5,6.1-17.5,6.1
							s-21.4-64.6-45.8-102.3c-24.4-37.7-76.301-227.399-187-292.8c0,0,58,28.2,105.5,99.6C833.9,462.5,865.3,556.7,875.5,572.9
							C885.7,589,919.3,643.7,931.2,680.5z"/>
						<path fill="none" stroke="#000099" stroke-width="2" stroke-miterlimit="10" d="M882,609.3c0,0-40.9-16.1-72.5-17"/>
						<path fill="none" stroke="#000099" stroke-width="2" stroke-miterlimit="10" d="M876.7,599.3c0,0-58.9-28.3-83.7-24.2"/>
						<path fill="none" stroke="#000099" stroke-width="2" stroke-miterlimit="10" d="M867.9,584.3c0,0-14-3.7-35-11.899
							c-21-8.2-51.9-10.5-51.9-10.5"/>
						<path fill="none" stroke="#000099" stroke-width="2" stroke-miterlimit="10" d="M858.4,565.8c0,0-29.9-1.2-40.801-2.8
							c-10.899-1.6-29.199-8.3-42.8-8.2"/>
						<path fill="none" stroke="#000099" stroke-width="2" stroke-miterlimit="10" d="M854.8,557.7c0,0-36.5-9.3-53.8-11.9
							c-17.3-2.6-36.7-3.7-36.7-3.7"/>
						<path fill="none" stroke="#000099" stroke-width="2" stroke-miterlimit="10" d="M851,548.6c0,0-34.9-5.5-48.8-7.399
							c-13.9-1.9-41.8-4.2-41.8-4.2"/>
						<path fill="none" stroke="#000099" stroke-width="2" stroke-miterlimit="10" d="M847.3,539.9c0,0-36.399-9.301-55.6-12.7
							c-19.2-3.4-41.2-4.101-41.2-4.101"/>
						<path fill="none" stroke="#000099" stroke-width="2" stroke-miterlimit="10" d="M842.5,528.4c0,0-23.9-2.5-47.4-7.2
							c-23.6-4.7-46.199-0.601-46.199-0.601"/>
						<path fill="none" stroke="#000099" stroke-width="2" stroke-miterlimit="10" d="M838.4,518.5c0,0-39.2-8.4-56.5-11
							c-17.2-2.6-40.5-2.1-40.5-2.1"/>
						<path fill="none" stroke="#000099" stroke-width="2" stroke-miterlimit="10" d="M835.2,511c0,0-23-2.4-40.3-8.6
							c-17.301-6.2-54.7-3.2-54.7-3.2"/>
						<path fill="none" stroke="#000099" stroke-width="2" stroke-miterlimit="10" d="M832.1,503.5c0,0-19.399-4.5-39.199-11.1
							c-19.7-6.5-53.7-16.601-53.7-16.601"/>
						<path fill="none" stroke="#000099" stroke-width="2" stroke-miterlimit="10" d="M827.8,493.8c0,0-9.6-5.3-33.2-13
							c-23.6-7.8-55.3-17.1-55.3-17.1"/>
						<path fill="none" stroke="#000099" stroke-width="2" stroke-miterlimit="10" d="M822,480.7c0,0-12.7-4.9-33.6-9.601
							C767.5,466.4,739.6,451.9,739.6,451.9"/>
						<path fill="none" stroke="#000099" stroke-width="2" stroke-miterlimit="10" d="M818.1,471.9c0,0-20.399-11.601-40.5-17.2
							c-20.1-5.601-38.1-12.4-38.1-12.4"/>
						<path fill="none" stroke="#000099" stroke-width="2" stroke-miterlimit="10" d="M813.6,462.4c0,0-24.1-13.5-39.1-18.301
							c-15-4.8-37.5-20.5-37.5-20.5"/>
						<path fill="none" stroke="#000099" stroke-width="2" stroke-miterlimit="10" d="M809,452.9c0,0-22.1-14.4-36.3-20.7
							c-14.2-6.2-46.3-29.8-46.3-29.8"/>
						<path fill="none" stroke="#000099" stroke-width="2" stroke-miterlimit="10" d="M802.4,439.5c0,0-23.7-13.4-38.101-20.2
							c-14.399-6.7-34.6-29.5-45.899-35"/>
						<path fill="none" stroke="#000099" stroke-width="2" stroke-miterlimit="10" d="M792.4,420.7c0,0-13.2-8.2-31-16
							C743.6,396.9,716.3,378.1,716.3,378.1"/>
						<path fill="none" stroke="#000099" stroke-width="2" stroke-miterlimit="10" d="M784.8,407.2c0,0-13.6-8-30.899-17.5
							c-17.301-9.5-39.101-17.5-39.101-17.5"/>
						<path fill="none" stroke="#000099" stroke-width="2" stroke-miterlimit="10" d="M773.6,388.8c0,0-15.699-13.899-28.3-20.399
							c-12.6-6.5-33.2-13.4-33.2-13.4"/>
						<path fill="none" stroke="#000099" stroke-width="2" stroke-miterlimit="10" d="M779.5,398.3c0,0-6.5-1.5-24.3-14.2
							c-17.8-12.699-42.4-22.6-42.4-22.6"/>
						<path fill="none" stroke="#000099" stroke-width="2" stroke-miterlimit="10" d="M759.2,367.5c0,0-11.101-9.7-25-16.4
							c-13.9-6.699-25.3-8.699-25.3-8.699"/>
						<path fill="none" stroke="#000099" stroke-width="2" stroke-miterlimit="10" d="M746.2,350.2c0,0-13-8.4-23.9-11.101
							C711.4,336.4,697.9,324.4,697.9,324.4"/>
						<path fill="none" stroke="#000099" stroke-width="2" stroke-miterlimit="10" d="M733.4,335.3c0,0-12.4-9.5-21.4-12.899
							c-9-3.4-22.4-10.2-22.4-10.2"/>
						<line fill="none" stroke="#000099" stroke-width="2" stroke-miterlimit="10" x1="716.1" y1="317.9" x2="684.1" y2="301.3"/>
						<path fill="none" stroke="#000099" stroke-width="2" stroke-miterlimit="10" d="M833.7,507.4c0,0-37-11.801-48.7-13.601
							s-45.8-6.899-45.8-6.899"/>
						<path fill="none" stroke="#000099" stroke-width="2" stroke-miterlimit="10" d="M883.9,613.1c0,0-18-1.6-31.9-4.8
							c-13.9-3.3-38.4-9.399-38.4-9.399"/>
						<path fill="none" stroke="#000099" stroke-width="2" stroke-miterlimit="10" d="M777.5,330.1c0,0-1.3,8-2.7,17.5
							c-1.399,9.601-5.6,20-5.6,20"/>
						<path fill="none" stroke="#000099" stroke-width="2" stroke-miterlimit="10" d="M785.2,336.4c0,0-5,14.8-6.8,20.899
							C776.6,363.4,773.3,372.9,773.3,372.9"/>
						<path fill="none" stroke="#000099" stroke-width="2" stroke-miterlimit="10" d="M790.9,340c0,0-3.7,19.5-6.5,26
							c-2.801,6.6-5.801,13.9-5.801,13.9"/>
						<path fill="none" stroke="#000099" stroke-width="2" stroke-miterlimit="10" d="M798,344.2c0,0-5,25.5-14,41.399"/>
						<path fill="none" stroke="#000099" stroke-width="2" stroke-miterlimit="10" d="M805.1,348.6c0,0-5.8,16.101-8.899,23.101
							c-3.101,7-7.9,22.3-7.9,22.3"/>
						<path fill="none" stroke="#000099" stroke-width="2" stroke-miterlimit="10" d="M813.8,354.8c0,0-4.6,11.101-8.899,20.601
							c-4.301,9.5-8.601,31.3-8.601,31.3"/>
						<path fill="none" stroke="#000099" stroke-width="2" stroke-miterlimit="10" d="M818.7,359.1c0,0-3.601,17.5-9.2,33.2
							s-9,21.5-9,21.5"/>
						<path fill="none" stroke="#000099" stroke-width="2" stroke-miterlimit="10" d="M827.6,369.1c0,0-6.899,13-9.5,24.5
							c-2.6,11.4-9.699,33.9-9.699,33.9"/>
						<path fill="none" stroke="#000099" stroke-width="2" stroke-miterlimit="10" d="M834.3,382.1c0,0-9,15.101-12.1,22.7
							C819.1,412.4,811,432.3,811,432.3"/>
						<path fill="none" stroke="#000099" stroke-width="2" stroke-miterlimit="10" d="M836.7,390.7c0,0-0.4,8.8-6.5,23.399
							c-6.2,14.5-13.7,28.5-13.7,28.5"/>
						<path fill="none" stroke="#000099" stroke-width="2" stroke-miterlimit="10" d="M839.7,398.8c0,0,1.2,3.4-2.5,16.3
							c-3.7,12.9-17.3,34.101-17.3,34.101"/>
						<path fill="none" stroke="#000099" stroke-width="2" stroke-miterlimit="10" d="M762.4,314.9c0,0-1.2,18.1-3.7,24.199
							c-2.5,6.2-4.601,10.9-4.601,10.9"/>
						<path fill="none" stroke="#000099" stroke-width="2" stroke-miterlimit="10" d="M754.5,307.8c0,0,1.6,20.5-3.4,39"/>
						<path fill="none" stroke="#000099" stroke-width="1.9879" stroke-miterlimit="10" d="M745.3,301.711
							c0,0,3.601,17.092,4.4,25.291c0.8,8.2-1.5,16.598-1.5,16.598"/>
						<path fill="none" stroke="#000099" stroke-width="1.985" stroke-miterlimit="10" d="M743.9,339.3c0,0-1.601-20.093-4.7-27.58
							c-3.101-7.485-7.601-14.381-7.601-14.381"/>
						<path fill="none" stroke="#000099" stroke-width="2" stroke-miterlimit="10" d="M722.8,295.5c0,0,14.101,23.9,13.101,36.2"/>
						<path fill="none" stroke="#000099" stroke-width="2" stroke-miterlimit="10" d="M729.2,325.6c0,0-12.2-18.3-16.7-31.7"/>
						<line fill="none" stroke="#000099" stroke-width="2" stroke-miterlimit="10" x1="705.6" y1="292.9" x2="713.2" y2="312.5"/>
						<path fill="none" stroke="#000099" stroke-width="2" stroke-miterlimit="10" d="M706.7,307.6c0,0-0.601-8-11.101-15.399"/>
					</g>
				</g>
			</g>
		</g>
	</g>
</g>
</svg>
