<?xml version="1.0" encoding="UTF-8" standalone="no"?>
<svg
   xmlns:dc="http://purl.org/dc/elements/1.1/"
   xmlns:cc="http://creativecommons.org/ns#"
   xmlns:rdf="http://www.w3.org/1999/02/22-rdf-syntax-ns#"
   xmlns:svg="http://www.w3.org/2000/svg"
   xmlns="http://www.w3.org/2000/svg"
   xmlns:sodipodi="http://sodipodi.sourceforge.net/DTD/sodipodi-0.dtd"
   xmlns:inkscape="http://www.inkscape.org/namespaces/inkscape"
   aria-label="IGTV"
   class="_8-yf5 "
   fill="#ffffff"
   height="18.000702"
   viewBox="0 0 41.800001 48.001872"
   width="15.675"
   version="1.1"
   id="svg4"
   sodipodi:docname="igtv.svg"
   inkscape:version="1.0.2 (394de47547, 2021-03-26)">
  <metadata
     id="metadata10">
    <rdf:RDF>
      <cc:Work
         rdf:about="">
        <dc:format>image/svg+xml</dc:format>
        <dc:type
           rdf:resource="http://purl.org/dc/dcmitype/StillImage" />
        <dc:title></dc:title>
      </cc:Work>
    </rdf:RDF>
  </metadata>
  <defs
     id="defs8" />
  <sodipodi:namedview
     pagecolor="#ffffff"
     bordercolor="#666666"
     borderopacity="1"
     objecttolerance="10"
     gridtolerance="10"
     guidetolerance="10"
     inkscape:pageopacity="0"
     inkscape:pageshadow="2"
     inkscape:window-width="1664"
     inkscape:window-height="1162"
     id="namedview6"
     showgrid="false"
     fit-margin-top="0"
     fit-margin-left="0"
     fit-margin-right="0"
     fit-margin-bottom="0"
     inkscape:zoom="44.055556"
     inkscape:cx="7.8375"
     inkscape:cy="9.2766567"
     inkscape:window-x="0"
     inkscape:window-y="0"
     inkscape:window-maximized="0"
     inkscape:current-layer="svg4" />
  <path
     d="m 38.2,9.7018719 c -2.2,-2.1 -4.9,-3.5 -10.6,-3.5 h -2.1 l 1.8,-2 c 0.9,-1 0.9,-2.6 -0.1,-3.50000001 -1,-0.9 -2.6,-0.9 -3.5,0.1 L 20.9,3.8018719 18.1,0.80187189 c -0.9,-1 -2.5,-1.1 -3.5,-0.1 -1,0.90000001 -1.1,2.50000001 -0.1,3.50000001 l 1.8,2 h -2.1 c -5.8,0 -8.4,1.4 -10.7,3.6 C 1.4,12.001872 0,14.701872 0,20.401872 v 13.4 c 0,5.8 1.4,8.4 3.6,10.7 2.2,2.1 4.9,3.5 10.6,3.5 h 13.4 c 5.8,0 8.4,-1.4 10.7,-3.6 2.1,-2.2 3.5,-4.9 3.5,-10.6 v -13.4 c 0,-5.8 -1.4,-8.5 -3.6,-10.7000001 z m -5.6,18.2000001 -11.3,3.5 c -0.1,0 -0.3,0.1 -0.4,0.1 -0.3,0 -0.6,-0.1 -0.9,-0.3 -0.4,-0.3 -0.6,-0.7 -0.6,-1.2 v -3.9 l -9.4,2.9 c -0.8,0.2 -1.6,-0.2 -1.9,-1 -0.2,-0.8 0.2,-1.6 1,-1.9 l 11.3,-3.5 c 0.5,-0.1 0.9,-0.1 1.3,0.2 0.4,0.3 0.6,0.7 0.6,1.2 v 4 l 9.4,-2.9 c 0.8,-0.2 1.6,0.2 1.9,1 0.3,0.8 -0.2,1.6 -1,1.8 z"
     id="path2" />
</svg>
