<?xml version="1.0" encoding="utf-8"?>
<!-- Generator: Adobe Illustrator 12.0.0, SVG Export Plug-In . SVG Version: 6.00 Build 51448)  -->
<!DOCTYPE svg PUBLIC "-//W3C//DTD SVG 1.1//EN" "http://www.w3.org/Graphics/SVG/1.1/DTD/svg11.dtd" [
	<!ENTITY ns_svg "http://www.w3.org/2000/svg">
	<!ENTITY ns_xlink "http://www.w3.org/1999/xlink">
]>
<svg  version="1.1" id="Layer_1" xmlns="&ns_svg;" xmlns:xlink="&ns_xlink;" width="436.731" height="48.512"
	 viewBox="0 0 436.731 48.512" overflow="visible" enable-background="new 0 0 436.731 48.512" xml:space="preserve">
<g>
	<g>
		<path fill="#231F20" d="M34.438,1.063v22.25c0,4.151,0.099,6.69,0.298,7.617s0.518,1.574,0.955,1.943s0.947,0.553,1.531,0.553
			c0.821,0,1.749-0.225,2.784-0.676l0.557,1.438l-10.897,4.438h-1.79V30.98c-3.131,3.363-5.519,5.478-7.163,6.345
			c-1.645,0.866-3.383,1.3-5.213,1.3c-2.043,0-3.813-0.591-5.313-1.771c-1.499-1.182-2.54-2.701-3.124-4.56
			c-0.584-1.857-0.875-4.485-0.875-7.884V8.125c0-1.729-0.187-2.925-0.56-3.59S4.703,3.358,3.972,2.999
			C3.239,2.64,1.916,2.474,0,2.5V1.063h12.813v24.453c0,3.404,0.589,5.638,1.769,6.701c1.179,1.064,2.603,1.596,4.272,1.596
			c1.139,0,2.431-0.358,3.875-1.077c1.443-0.718,3.159-2.087,5.146-4.108V8c0-2.118-0.38-3.551-1.14-4.298S24.397,2.555,22,2.5
			V1.063H34.438z"/>
		<path fill="#231F20" d="M74.226,0v12.438h-1.313c-1.009-3.897-2.303-6.549-3.882-7.954C67.452,3.078,65.441,2.375,63,2.375
			c-1.858,0-3.358,0.49-4.499,1.47c-1.142,0.979-1.712,2.064-1.712,3.256c0,1.482,0.426,2.754,1.278,3.813
			c0.825,1.086,2.498,2.237,5.02,3.455l5.811,2.819c5.386,2.625,8.079,6.086,8.079,10.381c0,3.314-1.253,5.986-3.757,8.015
			c-2.505,2.027-5.308,3.042-8.407,3.042c-2.227,0-4.771-0.375-7.633-1.125c-0.875-0.25-1.591-0.375-2.147-0.375
			c-0.609,0-1.087,0.313-1.431,0.938h-1.313v-13h1.313c0.742,3.703,2.16,6.493,4.255,8.371s4.441,2.816,7.041,2.816
			c1.829,0,3.32-0.535,4.474-1.607s1.73-2.362,1.73-3.871c0-1.826-0.646-3.36-1.939-4.604s-3.866-2.812-7.721-4.702
			c-3.855-1.891-6.375-3.606-7.561-5.149c-1.187-1.516-1.779-3.431-1.779-5.744c0-3.005,1.027-5.518,3.084-7.539
			C57.241,1.011,59.9,0,63.164,0c1.433,0,3.171,0.303,5.214,0.908C69.73,1.303,70.632,1.5,71.083,1.5
			c0.424,0,0.756-0.092,0.994-0.276C72.316,1.04,72.595,0.632,72.914,0H74.226z"/>
		<path fill="#231F20" d="M93.865,14.813c-0.027,5.4,1.285,9.636,3.937,12.706c2.65,3.071,5.766,4.606,9.345,4.606
			c2.385,0,4.459-0.648,6.223-1.947c1.763-1.299,3.24-3.545,4.434-6.74l1.25,0.793c-0.557,3.652-2.174,6.965-4.851,9.937
			c-2.678,2.973-6.03,4.458-10.059,4.458c-4.374,0-8.118-1.702-11.232-5.106s-4.671-7.98-4.671-13.729
			c0-6.225,1.597-11.079,4.791-14.563C96.225,1.742,100.233,0,105.058,0c4.082,0,7.435,1.344,10.059,4.031s3.937,6.281,3.937,10.781
			H93.865z M93.865,12.5h16.938c-0.134-2.329-0.413-3.97-0.839-4.923c-0.666-1.482-1.658-2.646-2.977-3.494
			c-1.318-0.847-2.696-1.271-4.134-1.271c-2.211,0-4.188,0.854-5.933,2.562S94.158,9.457,93.865,12.5z"/>
		<path fill="#231F20" d="M160.332,23.683c-0.98,4.816-2.902,8.512-5.764,11.084c-2.862,2.572-6.029,3.858-9.501,3.858
			c-4.135,0-7.738-1.736-10.813-5.211c-3.074-3.474-4.61-8.168-4.61-14.082c0-5.728,1.7-10.382,5.103-13.962S142.233,0,146.999,0
			c3.573,0,6.512,0.948,8.815,2.843c2.303,1.895,3.455,3.862,3.455,5.903c0,1.008-0.324,1.822-0.973,2.445s-1.556,0.934-2.72,0.934
			c-1.563,0-2.729-0.509-3.503-1.526c-0.471-0.563-0.779-1.634-0.925-3.214s-0.682-2.786-1.607-3.617
			c-0.927-0.803-2.211-1.205-3.852-1.205c-2.647,0-4.778,0.985-6.393,2.955c-2.145,2.61-3.216,6.059-3.216,10.345
			c0,4.367,1.067,8.222,3.204,11.563c2.136,3.342,5.021,5.012,8.657,5.012c2.6,0,4.935-0.878,7.005-2.635
			c1.459-1.221,2.879-3.446,4.259-6.678L160.332,23.683z"/>
		<path fill="#231F20" d="M201.924,1.063v22.25c0,4.151,0.099,6.69,0.298,7.617s0.518,1.574,0.955,1.943s0.947,0.553,1.531,0.553
			c0.821,0,1.749-0.225,2.784-0.676l0.557,1.438l-10.897,4.438h-1.79V30.98c-3.131,3.363-5.519,5.478-7.163,6.345
			c-1.645,0.866-3.383,1.3-5.213,1.3c-2.043,0-3.813-0.591-5.313-1.771c-1.499-1.182-2.54-2.701-3.124-4.56
			c-0.584-1.857-0.875-4.485-0.875-7.884V8.125c0-1.729-0.187-2.925-0.56-3.59s-0.925-1.177-1.656-1.536
			c-0.732-0.359-2.056-0.525-3.972-0.499V1.063h12.813v24.453c0,3.404,0.589,5.638,1.769,6.701c1.179,1.064,2.603,1.596,4.272,1.596
			c1.139,0,2.431-0.358,3.875-1.077c1.443-0.718,3.159-2.087,5.146-4.108V8c0-2.118-0.38-3.551-1.14-4.298s-2.338-1.147-4.735-1.202
			V1.063H201.924z"/>
		<path fill="#231F20" d="M221.212,14.813c-0.027,5.4,1.285,9.636,3.938,12.706c2.65,3.071,5.766,4.606,9.344,4.606
			c2.385,0,4.459-0.648,6.223-1.947s3.24-3.545,4.434-6.74l1.25,0.793c-0.557,3.652-2.174,6.965-4.85,9.937
			c-2.678,2.973-6.031,4.458-10.059,4.458c-4.375,0-8.119-1.702-11.232-5.106c-3.115-3.404-4.672-7.98-4.672-13.729
			c0-6.225,1.598-11.079,4.791-14.563C223.571,1.742,227.581,0,232.405,0c4.082,0,7.434,1.344,10.059,4.031
			c2.623,2.688,3.936,6.281,3.936,10.781H221.212z M221.212,12.5h16.938c-0.133-2.329-0.412-3.97-0.838-4.923
			c-0.666-1.482-1.658-2.646-2.977-3.494c-1.318-0.847-2.697-1.271-4.135-1.271c-2.211,0-4.188,0.854-5.932,2.562
			S221.505,9.457,221.212,12.5z"/>
	</g>
	<g>
		<path fill="#231F20" d="M267.542,25.894h4.482v0.422c-0.412,0.031-0.682,0.106-0.811,0.224s-0.193,0.286-0.193,0.506
			c0,0.243,0.066,0.537,0.199,0.882l2.295,6.143l2.305-5.009l-0.615-1.566c-0.188-0.471-0.434-0.797-0.736-0.979
			c-0.172-0.109-0.49-0.177-0.957-0.2v-0.422h5.102v0.422c-0.563,0.024-0.961,0.128-1.195,0.312
			c-0.156,0.127-0.234,0.331-0.234,0.609c0,0.152,0.031,0.309,0.094,0.469l2.436,6.145l2.258-5.923
			c0.156-0.423,0.234-0.761,0.234-1.012c0-0.148-0.076-0.282-0.229-0.399c-0.152-0.118-0.449-0.185-0.895-0.2v-0.422h3.369v0.422
			c-0.676,0.102-1.174,0.563-1.494,1.385l-3.564,9.225h-0.484l-2.686-6.838l-3.145,6.838h-0.404l-3.438-8.998
			c-0.227-0.572-0.449-0.958-0.666-1.158c-0.219-0.2-0.561-0.351-1.027-0.453V25.894z"/>
		<path fill="#231F20" d="M287.218,29.925c-0.008,1.589,0.377,2.835,1.156,3.738c0.777,0.903,1.693,1.355,2.744,1.355
			c0.701,0,1.311-0.191,1.828-0.575s0.951-1.046,1.303-1.987l0.359,0.234c-0.164,1.073-0.639,2.048-1.426,2.923
			c-0.785,0.874-1.77,1.312-2.953,1.312c-1.283,0-2.383-0.5-3.297-1.499c-0.914-1-1.371-2.344-1.371-4.033
			c0-1.828,0.469-3.254,1.406-4.277c0.938-1.022,2.115-1.534,3.531-1.534c1.197,0,2.182,0.394,2.953,1.183
			c0.77,0.787,1.156,1.842,1.156,3.161H287.218z M287.218,29.253h4.969c-0.039-0.684-0.121-1.165-0.246-1.445
			c-0.195-0.435-0.486-0.776-0.873-1.025s-0.791-0.373-1.213-0.373c-0.648,0-1.229,0.251-1.74,0.752S287.304,28.359,287.218,29.253z
			"/>
		<path fill="#231F20" d="M298.97,27.754c1.031-1.448,2.145-2.173,3.338-2.173c1.094,0,2.047,0.47,2.861,1.407
			c0.814,0.939,1.223,2.223,1.223,3.85c0,1.9-0.631,3.432-1.889,4.592c-1.08,0.997-2.285,1.495-3.613,1.495
			c-0.621,0-1.254-0.113-1.895-0.34c-0.641-0.228-1.295-0.567-1.963-1.021V24.503c0-1.215-0.029-1.963-0.088-2.244
			c-0.059-0.28-0.15-0.471-0.275-0.573c-0.125-0.101-0.281-0.151-0.467-0.151c-0.219,0-0.492,0.062-0.818,0.187L295.22,21.3
			l3.223-1.313h0.527V27.754z M298.97,28.5v6.389c0.395,0.389,0.803,0.682,1.227,0.88c0.422,0.198,0.854,0.297,1.295,0.297
			c0.705,0,1.363-0.389,1.971-1.165c0.609-0.777,0.914-1.908,0.914-3.393c0-1.368-0.305-2.419-0.914-3.153
			c-0.607-0.734-1.299-1.102-2.074-1.102c-0.412,0-0.822,0.104-1.232,0.314C299.845,27.723,299.45,28.034,298.97,28.5z"/>
		<path fill="#231F20" d="M321.524,35.391c-0.523,0.549-1.033,0.941-1.531,1.179c-0.5,0.237-1.037,0.355-1.613,0.355
			c-1.17,0-2.189-0.488-3.063-1.465c-0.873-0.976-1.309-2.23-1.309-3.764c0-1.532,0.482-2.935,1.449-4.207
			c0.965-1.272,2.209-1.908,3.729-1.908c0.943,0,1.721,0.301,2.338,0.901v-1.979c0-1.218-0.029-1.967-0.088-2.246
			s-0.15-0.469-0.273-0.57c-0.125-0.101-0.279-0.151-0.467-0.151c-0.201,0-0.469,0.062-0.803,0.187l-0.15-0.422l3.178-1.313h0.525
			v12.375c0,1.249,0.029,2.012,0.086,2.287c0.059,0.275,0.152,0.468,0.279,0.576c0.129,0.109,0.277,0.163,0.449,0.163
			c0.209,0,0.488-0.066,0.838-0.198l0.129,0.422l-3.168,1.313h-0.535V35.391z M321.524,34.573v-5.497
			c-0.047-0.535-0.188-1.021-0.422-1.457c-0.232-0.436-0.543-0.765-0.928-0.986c-0.387-0.222-0.762-0.333-1.129-0.333
			c-0.686,0-1.297,0.308-1.834,0.923c-0.709,0.81-1.063,1.993-1.063,3.551c0,1.572,0.342,2.777,1.027,3.614s1.449,1.256,2.291,1.256
			C320.177,35.644,320.862,35.287,321.524,34.573z"/>
		<path fill="#231F20" d="M327.71,29.925c-0.008,1.589,0.377,2.835,1.156,3.738s1.693,1.355,2.746,1.355
			c0.699,0,1.309-0.191,1.826-0.575s0.953-1.046,1.303-1.987l0.359,0.234c-0.164,1.073-0.639,2.048-1.424,2.923
			c-0.787,0.874-1.771,1.312-2.953,1.312c-1.285,0-2.383-0.5-3.299-1.499c-0.914-1-1.371-2.344-1.371-4.033
			c0-1.828,0.469-3.254,1.406-4.277c0.938-1.022,2.115-1.534,3.531-1.534c1.199,0,2.184,0.394,2.953,1.183
			c0.771,0.787,1.156,1.842,1.156,3.161H327.71z M327.71,29.253h4.969c-0.039-0.684-0.121-1.165-0.246-1.445
			c-0.195-0.435-0.486-0.776-0.873-1.025s-0.791-0.373-1.213-0.373c-0.648,0-1.229,0.251-1.74,0.752S327.796,28.359,327.71,29.253z"
			/>
		<path fill="#231F20" d="M335.991,25.894h5.018v0.422h-0.328c-0.303,0-0.535,0.074-0.693,0.222
			c-0.158,0.148-0.238,0.347-0.238,0.596c0,0.272,0.082,0.595,0.244,0.969l2.492,5.906l2.492-6.128
			c0.18-0.437,0.27-0.767,0.27-0.992c0-0.109-0.031-0.198-0.094-0.269c-0.086-0.117-0.195-0.196-0.328-0.239
			c-0.131-0.043-0.4-0.064-0.805-0.064v-0.422h3.488v0.422c-0.406,0.032-0.686,0.114-0.842,0.249
			c-0.271,0.236-0.518,0.632-0.734,1.185l-3.766,9.176h-0.496l-3.811-9.034c-0.172-0.423-0.336-0.727-0.49-0.911
			c-0.156-0.184-0.355-0.339-0.596-0.464c-0.133-0.07-0.393-0.138-0.783-0.2V25.894z"/>
		<path fill="#231F20" d="M350.274,29.925c-0.008,1.589,0.377,2.835,1.156,3.738s1.693,1.355,2.746,1.355
			c0.699,0,1.309-0.191,1.826-0.575s0.953-1.046,1.303-1.987l0.359,0.234c-0.164,1.073-0.639,2.048-1.424,2.923
			c-0.787,0.874-1.771,1.312-2.953,1.312c-1.285,0-2.383-0.5-3.299-1.499c-0.914-1-1.371-2.344-1.371-4.033
			c0-1.828,0.469-3.254,1.406-4.277c0.938-1.022,2.115-1.534,3.531-1.534c1.199,0,2.184,0.394,2.953,1.183
			c0.771,0.787,1.156,1.842,1.156,3.161H350.274z M350.274,29.253h4.969c-0.039-0.684-0.121-1.165-0.246-1.445
			c-0.195-0.435-0.486-0.776-0.873-1.025s-0.791-0.373-1.213-0.373c-0.648,0-1.229,0.251-1.74,0.752S350.36,28.359,350.274,29.253z"
			/>
		<path fill="#231F20" d="M362.776,19.987v14.188c0,0.671,0.049,1.115,0.146,1.333c0.098,0.219,0.248,0.385,0.451,0.498
			c0.203,0.112,0.582,0.169,1.137,0.169v0.422h-5.266v-0.422c0.494,0,0.834-0.051,1.014-0.152c0.182-0.101,0.324-0.269,0.426-0.503
			c0.102-0.233,0.154-0.682,0.154-1.345v-9.719c0-1.197-0.027-1.933-0.082-2.207s-0.143-0.462-0.264-0.563
			c-0.121-0.101-0.275-0.151-0.463-0.151c-0.203,0-0.461,0.062-0.773,0.187l-0.199-0.422l3.191-1.313H362.776z"/>
		<path fill="#231F20" d="M370.96,25.581c1.617,0,2.916,0.615,3.896,1.846c0.832,1.052,1.248,2.259,1.248,3.622
			c0,0.958-0.229,1.928-0.688,2.908c-0.459,0.982-1.092,1.722-1.896,2.221c-0.805,0.498-1.701,0.747-2.689,0.747
			c-1.609,0-2.889-0.643-3.838-1.928c-0.801-1.083-1.201-2.298-1.201-3.645c0-0.981,0.244-1.957,0.729-2.927
			c0.486-0.97,1.127-1.687,1.92-2.149C369.233,25.813,370.073,25.581,370.96,25.581z M370.599,26.347
			c-0.412,0-0.826,0.123-1.242,0.368c-0.414,0.245-0.752,0.675-1.008,1.29s-0.385,1.405-0.385,2.37c0,1.557,0.309,2.9,0.928,4.028
			c0.617,1.129,1.432,1.693,2.441,1.693c0.754,0,1.375-0.312,1.865-0.935c0.49-0.622,0.734-1.692,0.734-3.211
			c0-1.899-0.408-3.394-1.225-4.483C372.157,26.721,371.454,26.347,370.599,26.347z"/>
		<path fill="#231F20" d="M376.917,26.956l3.291-1.328h0.443v2.494c0.553-0.94,1.107-1.599,1.664-1.976
			c0.555-0.377,1.141-0.565,1.756-0.565c1.072,0,1.969,0.421,2.684,1.262c0.879,1.028,1.318,2.368,1.318,4.019
			c0,1.846-0.529,3.373-1.586,4.58c-0.873,0.989-1.969,1.483-3.291,1.483c-0.576,0-1.074-0.082-1.494-0.246
			c-0.311-0.117-0.662-0.351-1.051-0.702v3.261c0,0.733,0.045,1.198,0.135,1.397s0.246,0.357,0.469,0.475
			c0.221,0.116,0.625,0.175,1.209,0.175v0.422h-5.609v-0.422h0.293c0.428,0.008,0.795-0.074,1.1-0.247
			c0.146-0.086,0.262-0.225,0.344-0.416c0.082-0.192,0.123-0.68,0.123-1.462V29.05c0-0.693-0.031-1.134-0.094-1.321
			c-0.063-0.187-0.16-0.327-0.297-0.421c-0.137-0.093-0.32-0.14-0.555-0.14c-0.186,0-0.424,0.055-0.711,0.163L376.917,26.956z
			 M380.651,28.812v3.997c0,0.865,0.035,1.434,0.105,1.707c0.109,0.451,0.375,0.85,0.799,1.191c0.424,0.344,0.959,0.515,1.605,0.515
			c0.777,0,1.406-0.304,1.889-0.911c0.631-0.795,0.945-1.913,0.945-3.355c0-1.636-0.357-2.895-1.072-3.775
			c-0.498-0.607-1.09-0.911-1.773-0.911c-0.375,0-0.744,0.094-1.109,0.28C381.761,27.689,381.298,28.11,380.651,28.812z"/>
		<path fill="#231F20" d="M392.823,27.863c0.777-0.78,1.234-1.229,1.375-1.346c0.35-0.297,0.727-0.527,1.129-0.69
			c0.404-0.164,0.805-0.246,1.201-0.246c0.666,0,1.242,0.195,1.723,0.585c0.482,0.391,0.805,0.956,0.967,1.697
			c0.801-0.937,1.477-1.551,2.029-1.844c0.553-0.292,1.119-0.438,1.703-0.438c0.568,0,1.07,0.146,1.51,0.438
			c0.439,0.291,0.787,0.768,1.045,1.43c0.17,0.451,0.256,1.16,0.256,2.125v4.601c0,0.671,0.051,1.131,0.152,1.38
			c0.078,0.172,0.221,0.318,0.432,0.439c0.209,0.12,0.551,0.181,1.025,0.181v0.422h-5.281v-0.422h0.223
			c0.461,0,0.82-0.09,1.078-0.269c0.18-0.125,0.309-0.324,0.387-0.597c0.031-0.133,0.047-0.511,0.047-1.135v-4.597
			c0-0.871-0.105-1.486-0.314-1.844c-0.303-0.498-0.789-0.747-1.457-0.747c-0.412,0-0.826,0.104-1.242,0.31s-0.918,0.59-1.51,1.15
			l-0.023,0.128l0.031,0.502v5.098c0,0.733,0.041,1.189,0.123,1.368c0.08,0.18,0.234,0.33,0.459,0.451
			c0.225,0.12,0.609,0.181,1.152,0.181v0.422h-5.406v-0.422c0.59,0,0.996-0.07,1.217-0.21c0.221-0.141,0.375-0.352,0.459-0.632
			c0.039-0.133,0.059-0.519,0.059-1.158v-4.597c0-0.871-0.127-1.499-0.383-1.884c-0.342-0.503-0.818-0.754-1.432-0.754
			c-0.418,0-0.832,0.114-1.244,0.341c-0.643,0.346-1.139,0.734-1.488,1.166v5.728c0,0.702,0.049,1.158,0.146,1.368
			c0.096,0.211,0.24,0.369,0.43,0.475c0.189,0.104,0.576,0.157,1.158,0.157v0.422h-5.297v-0.422c0.492,0,0.834-0.053,1.029-0.157
			c0.195-0.105,0.342-0.273,0.443-0.504c0.102-0.229,0.152-0.676,0.152-1.339v-4.078c0-1.177-0.035-1.937-0.105-2.278
			c-0.055-0.258-0.139-0.435-0.256-0.532c-0.117-0.097-0.275-0.146-0.479-0.146c-0.217,0-0.479,0.059-0.781,0.175l-0.176-0.422
			l3.23-1.313h0.504V27.863z"/>
		<path fill="#231F20" d="M410.028,29.925c-0.008,1.589,0.377,2.835,1.156,3.738c0.777,0.903,1.693,1.355,2.744,1.355
			c0.701,0,1.311-0.191,1.828-0.575s0.951-1.046,1.303-1.987l0.359,0.234c-0.164,1.073-0.639,2.048-1.426,2.923
			c-0.785,0.874-1.77,1.312-2.953,1.312c-1.283,0-2.383-0.5-3.297-1.499c-0.914-1-1.371-2.344-1.371-4.033
			c0-1.828,0.469-3.254,1.406-4.277c0.938-1.022,2.115-1.534,3.531-1.534c1.197,0,2.182,0.394,2.953,1.183
			c0.77,0.787,1.156,1.842,1.156,3.161H410.028z M410.028,29.253h4.969c-0.039-0.684-0.121-1.165-0.246-1.445
			c-0.195-0.435-0.486-0.776-0.873-1.025s-0.791-0.373-1.213-0.373c-0.648,0-1.229,0.251-1.74,0.752S410.114,28.359,410.028,29.253z
			"/>
		<path fill="#231F20" d="M421.966,27.848c1.252-1.511,2.445-2.267,3.58-2.267c0.584,0,1.084,0.146,1.504,0.438
			c0.42,0.291,0.754,0.771,1.004,1.441c0.17,0.467,0.256,1.184,0.256,2.148v4.565c0,0.679,0.055,1.139,0.164,1.38
			c0.086,0.195,0.225,0.348,0.416,0.457c0.191,0.108,0.545,0.163,1.061,0.163v0.422h-5.313v-0.422h0.223
			c0.5,0,0.85-0.076,1.049-0.228c0.199-0.152,0.338-0.377,0.416-0.673c0.031-0.117,0.047-0.483,0.047-1.1v-4.378
			c0-0.973-0.125-1.679-0.377-2.119c-0.252-0.439-0.678-0.659-1.273-0.659c-0.922,0-1.842,0.507-2.756,1.519v5.638
			c0,0.726,0.043,1.174,0.129,1.345c0.107,0.227,0.258,0.393,0.447,0.498c0.189,0.104,0.576,0.157,1.158,0.157v0.422h-5.297v-0.422
			h0.234c0.545,0,0.914-0.138,1.105-0.415c0.189-0.277,0.285-0.805,0.285-1.585v-3.969c0-1.282-0.029-2.063-0.088-2.343
			s-0.146-0.471-0.268-0.571s-0.281-0.151-0.484-0.151c-0.217,0-0.479,0.059-0.781,0.175l-0.176-0.422l3.23-1.313h0.504V27.848z"/>
		<path fill="#231F20" d="M433.903,22.378v3.516h2.498v0.813h-2.498v6.939c0,0.692,0.1,1.16,0.299,1.401
			c0.199,0.242,0.455,0.362,0.766,0.362c0.258,0,0.508-0.08,0.75-0.241c0.24-0.16,0.428-0.398,0.561-0.712h0.453
			c-0.273,0.767-0.66,1.345-1.158,1.731c-0.5,0.388-1.016,0.581-1.547,0.581c-0.359,0-0.709-0.1-1.053-0.298
			c-0.344-0.199-0.598-0.483-0.762-0.854s-0.246-0.94-0.246-1.712v-7.199h-1.688v-0.383c0.428-0.171,0.865-0.461,1.313-0.869
			c0.445-0.407,0.846-0.892,1.199-1.453c0.182-0.296,0.432-0.837,0.754-1.624H433.903z"/>
	</g>
	<rect x="1.405" y="44.322" fill="#231F20" width="40.333" height="4.189"/>
</g>
</svg>
