<?xml version="1.0" encoding="utf-8"?>
<!-- Generator: Adobe Illustrator 12.0.0, SVG Export Plug-In . SVG Version: 6.00 Build 51448)  -->
<!DOCTYPE svg PUBLIC "-//W3C//DTD SVG 1.1//EN" "http://www.w3.org/Graphics/SVG/1.1/DTD/svg11.dtd" [
	<!ENTITY ns_svg "http://www.w3.org/2000/svg">
	<!ENTITY ns_xlink "http://www.w3.org/1999/xlink">
]>
<svg  version="1.1" id="Layer_1" xmlns="&ns_svg;" xmlns:xlink="&ns_xlink;" width="71.203" height="50.293"
	 viewBox="0 0 71.203 50.293" overflow="visible" enable-background="new 0 0 71.203 50.293" xml:space="preserve">
<path fill="#FFFFFF" d="M42.77,0H7.523C3.369,0,0,3.368,0,7.522v35.248c0,4.155,3.369,7.522,7.523,7.522H42.77
	c4.155,0,7.522-3.367,7.522-7.522V7.522C50.292,3.368,46.925,0,42.77,0z M25.146,42.501c-9.57,0-17.355-7.785-17.355-17.354
	c0-9.57,7.785-17.356,17.355-17.356c9.569,0,17.354,7.786,17.354,17.356C42.5,34.716,34.715,42.501,25.146,42.501z"/>
<path fill="#FFFFFF" d="M25.146,14.791c-5.71,0-10.355,4.646-10.355,10.356c0,5.709,4.645,10.354,10.355,10.354
	c5.709,0,10.354-4.645,10.354-10.354C35.5,19.437,30.855,14.791,25.146,14.791z"/>
<path fill="#FFFFFF" d="M70.945,7.114c-5.882,0-11.093,2.82-14.396,7.17v21.837c3.304,4.35,8.515,7.171,14.396,7.171
	c0.087,0,0.171-0.012,0.258-0.013V7.127C71.116,7.126,71.032,7.114,70.945,7.114z"/>
</svg>
